<svg xmlns="http://www.w3.org/2000/svg" fill="none" viewBox="0 0 1000 1000"><g stroke="#000" clip-path="url(#clip0_289_381)"><path fill="#3F1900" d="M226 67c-.1.97 0 2.02 0 3 0 4.45-.55 9.28-1 13-.38 19.15-2.59 38.97-4 58-1.42 19.02-1.53 34.4-8.7 52.3-7.16 17.91-25.64-6.2-36.3-9.3-3.49-.55-7.84-.15-11 1-4.9 2.62-8.25 6.36-9 12-1.07 28.76 4.1 61.32 0 90-.15 3.91-.79 7.16-1 11 .11 2.59.25 6.4 0 9 0 8.45-1.55 16.68-2 25-.27 4.92-.19 10.07 0 15-2.91 13.57 10.01 24.73 13.02 35.98 3.02 11.24 7.09 26.24 14.23 34.77 7.13 8.53 25.17 16.41 18.5 28-6.67 11.6-16.98 14.07-27.52 21.48s-14.37 19.75-16.3 32.7c-1.93 12.94-7.18 22.69-14.16 34.84s-8.4 23.75-9.77 39.23 12.42 18.26 25 23c3.91 18.25-12.84 25.33-26.31 27.69-13.46 2.37-21.79 25.53-11.44 34.06s24.75 11.31 36.67 17.33c11.93 6.01 24.88 11.16 37.06 16.95 12.17 5.78 25.14 10.76 37.33 16.67 12.18 5.9 24.72 11.46 37 17 12.27 5.53 24.42 10.77 36.69 16.3-9.65 3.3-24.98.67-30.08 10.92-5.11 10.24-18.8 6.99-23.15 16.85s-11.37 15.92-15.85 25.15c-4.47 9.24-9.85 16.38-15 25-5.14 8.63-10.12 17.04-15.62 25.39-5.49 8.34-9.37 16.95-14.55 25.44-5.18 8.5-10.61 16.6-15.83 25.17s-9.52 16.26-15.15 24.85-11.35 19-3.77 28.23c4.11 3.95 12.42 6.39 15 8 .94.27 1.53.87 3 1 32.78-1.68 66.96-3.52 100.67-3.33s69.09-3.89 102.33-.67h15c-.04 0 0-1 0-1h-14c17.6-1.66 38.47-1.67 56 0h15c-.04 0 0-1 0-1h-12c6.58-.73 18.32-3.02 24.74.26s11.22 6.92 18.33 8.67c7.12 1.74 16.51 3.02 23.93 3.07s16.61-2.57 23.02-3.98c6.42-1.41 13.4-8.56 14.98-6.02.38-.24 1.77-.53 2-1 .2-.4 0-1 0-1 3.83-3.96 13.43.41 19-1s14.3 1.59 20 1 14.81.53 20 0 17.69.37 16 1c-.16.06 0 1 0 1h11c5.57-.54 16-2.38 22-1s17.93-3.21 22 1c.25.26 0 1 0 1h13c8.93-.86 18.29-.88 28-1s19.37.75 29 1 20.39.22 30 0 19.73 1.17 29 1 21.41.55 30 0 14.35-5.49 16.93-13.07c2.58-7.59-4.68-14.94-7.7-21.16s-7.57-12.91-11-19c-3.43-6.08-8.2-12.48-11.48-18.52-3.29-6.03-8.05-13.2-11.05-18.95-3.01-5.74-9.15-13.7-11-18.99-1.86-5.3-12.24-14.74-9.7-18.31-.05-.5 0-1 0-1 3.9-4.03 14.32.36 20-1s16.23 1.16 22 0 15.28 2.82 19-3c2.37-4.9 1.53-14.49 1-20-.58-5.98-1.31-13.02 0-19v-3c-.79-3.58-.6-7.87-1-12-.8-8.31-1-17.99-1-27v-9c-.45-4.68-.35-10.41 0-15-.15-7.39-1-14.41-1-22-.31-3.23-.44-6.78 0-10v-4c-.48-3.49-1-7.86-1-12-.55-5.67-.54-12.4 0-18 0-5.94-1-11.11-1-17-4.45-31.14-6.03-69.6-3-101v-6c-.02-.1-1 0-1 0 .11-.07-1.45-12.46-1.78-17.22S837 497.04 837 491s-.93-14.49-1-21 .74-14.17-.33-20.67-.29-13.49-.67-20.33.42-14.89 1-21c0-2.32.15-4.69 0-7-.06 1.15-1.23 4.95-2 6 .66-8.5-1.33-18.33 1-26 0-4.41-.64-9.27-1-13-.1 1.66.08 3.34 0 5-2.68-34.18-2.79-71.85-2-106 0-5.07-.58-10.61-1-15v11c-1.55-24.47-3.94-51.56-2-76 0-4.74-.61-9.94-1-14v10c-2.55-19.48-1.25-41-3-61s1.68-41.61-5-60c-7.16-3.72-20.57 1.66-30 0s-21.98.77-32 0-20.68.34-31 0-21.53.15-32 0-21.5.07-32 0-20.47.03-31 0-21.43.01-32 0-21.46.01-32 0-20.48 0-31 0h-63c-10.54 0-21.44-.01-32 0s-21.48-.01-32 0-20.51-.03-31 0-21.55-.06-32 0-21.74-.14-32 0-21.12-.32-31 0-22.86-.68-32 0-21.58-3.43-26 5Zm149 7c.04 0 0 1 0 1h436c-.06 10.09 1.71 19.74 1 30 .3 3.08 1 7.25 1 11 0 14.94 1 29.19 1 44 .23 2.42 1 5.91 1 9 0 17.53 1.4 34.39 1 52-13.84-4.55-29.79-1.31-43.07-7.93-13.29-6.61-28.04-3.96-40.61 3.25-12.56 7.21-32.42-.21-42.32 9.68 40.44 9.96 84.88 2.88 127 4-.49 15.2 1.77 29.72 1 45 .3 3.08 1 7.25 1 11v22c.39 4.06 1 9.26 1 14v21c.36 3.73 1 8.59 1 13 0 23.63 2 46.68 2 70 0 34.17 1.6 68.16 3 102-3.92-.31-7.14 1.95-11 2 6.87-7.85 6.29-17.31 8-27s-3.14-27.46-7.33-14.33c-4.19 13.14-.58 17.53-5.67 29.33-3.39-5.5-2.33-23.73-2-31s1.37-28.77-7.25-22.25c-8.61 6.53-1.92 19.03-4.75 28.25-2.83 9.23 1.99 23.54 1 33-8.72-9.99-4.47-14.29-8-28-3.52-13.71-13.24-2.78-11 9s.97 18.01 9 27c-10.51-6.06-17.09-5.84-29.07-6.93-11.99-1.09-9.08-20.15-8.93-29.07 7.79 1.18 14.48 5.81 22 8-2.78-9.24-15.56-10.86-22-17-.3-.24-1 0-1 0-4.5-4.36.21-16.23-1-23s.35-17.52 0-25-.27-17.39 0-25-1.08-17.74 0-25-3.07-18.47 1-24c.22-.3.7-.78 1-1 7.05-5.19 21.92.68 31-1s23.39.43 32 1c1.6-.75 3.28-2.45 4-4 1.41-4.7 0-12.06 0-17s1.41-12.3 0-17c-.77-1.64-3.26-4.48-5-5-20.47 1.98-41.48-1.49-62 0-.67-20.17 1.33-41.66-1-61 2.4 9.53-1.21 20.13 0 30s-.91 21.01 0 31c-2.45-9.93-.16-23.48-1-34s2.48-24.29-3-31c-5.48-2.74-14.62-.46-21-1s-15.63-1.67-17 6c-.45 5.38 2.25 13.84 1 20s1.45 15.21 0 21 3.08 16.07-1 20c-21.76 1.96-44.33-2.67-66 0-1.53.19-1.01.12-2 1-1.76 3.89-1.46 13.58-1 19s-2.67 17.22 2.71 20.29c5.37 3.08 15.01-.64 21.29.71s16.91-1.58 23 0 17.82-3.33 22 1c.25.26 0 1 0 1 4.23 5.72-.17 16.47 1 24s-.48 18.01 0 26-.04 16.86 0 25 .77 17.27-1 25c-10.28-4.45-21.01-9.92-29-18-7.12-8.33-13.57-13.85-23.68-18.32s-15.74-12.2-27.55-15.45-11.27-14.84-17.52-24.48c-6.26-9.64-24.79-1.76-31.95-11.05-7.16-9.3-26.31 7.95-32.05-1.95-5.74-9.89-13.45-15.73-23.5-19.5-10.04-3.77-8.33-22.28-20.76-21.24-12.42 1.04-24.87-2.71-35.68 3.3-10.82 6-14.94 12.19-24.31 18.69-2.37 1.64-4.27 1.53-7 2-8.4 1.45-12.72 6.11-20 10-7.67 4.09-20.94 2.46-25.92 12.08-4.97 9.63-12.47 14.34-21.08 17.92.8-2.51 1.28-5.19 1-8-2.13-36.17-.21-76.2-4-111-2.36-8.21-7.35-15.77-17-16-23.96-.56-22 34-22 50 0 17.63.45 39.83 0 57s-.36 32.91-14 44v-54c0-15.57-.43-32.23 1-47 2.25-23.26-.88-49.9 0-73s1.1-47.85-5.32-68.68c-6.42-20.82-34.55-18.8-41.6.76-7.06 19.55-7.08 45.11-7.08 66.92 1.21 12.45 1.71 26.8 1 40s2.05 28.72-1 41c-.12 1.34-.83 2.21-1 3v22c.49 5.1 2.27 14.41 1 20s2.89 16.11-1 20c-3.12 3.12-12.03-7.74-15.3-11.7-3.28-3.95-6.58-16.21-6.7-22.3-3.53-29.23.15-60.96-1-91-.53-13.93-7.93-30.46-24.22-25.22S193 260.08 193 274v23c0 5.06-.58 10.68-1 15 0 8.35.1 17.76 0 26s-.06 17.66.78 25.22 2.36 14.35 5.2 20.8c2.83 6.46 5.73 10.83 9.77 16.23 4.05 5.39 9.19 7.68 13.33 12.67 4.15 4.99 11.42 6.09 16 10 4.58 3.92 15.38 3.02 18.92 7.08 2.78 3.19.1 13.24 1 17s-.6 15.27-1 15c-.35-.23-1 0-1 0v10c-15.81 6.09-29.82 16.74-46 22 .56-4.66-1-8.72-2-13-9.47-.23-7.37 12.48-8 19v27c-8.61-4.13-6.95-16.42-11-24-.67-1.42-.43-4.47-3-4-.39 2.06-1.09 4.06-2 6-2.28 14.33 3.78 26.59 14 36-12.66-3.54-23.73-13.58-38-9 4.08-6.91 5.54-15.21 9-22 2.44-8.38 2.41-21.34 9.25-27.75 6.84-6.42 14.71-9.18 21.5-15.5 6.79-6.31 14.74-12.43 16.25-21.75 3.41-20.98-18.79-26.2-26.3-41.7S175.38 371.42 168 356c-3.59-6.63-3.45-18.03-2-28 1.44-9.97 1.29-21.71 2-32 1.39.26.78 2.05 1 3 .13-.51.88-1.02 1-2 .12-.96 0-2.03 0-3-3.13-14.25-.73-29.63-1-45s-.96-30.08 0-46 19.9 7.38 23 10c16.45 9.57 32.86-3.42 35.99-21.01s6.56-37.91 7.01-56.99 4-40.51 4-60v-1c4.87-5.04 18.56.61 26-1s18.66.72 27 0 18.2.31 27 0 19.03.15 28 0 17.97.07 27 0 17.91.03 27 0 18.9.01 28 0 17.94.01 27 0 17.93 0 27 0h328c-144.43 2.33-290.81.33-436 1Zm-80 544c-5.36-5.52-5.53-12.24-7-20s-1.27-17.41-1-26-.69-19.3 0-28 1.12-16.97 1-26-.28-19.01 0-28-.92-18.18 0-27 1.24-17.88 1-27 .11-17.9 0-27 .05-17.85 0-27 .02-18.82 0-28 .01-17.78 0-27 0-18.71 0-28-.02-17.55 0-27-.04-18.24 0-28-.08-16.47 0-27-.18-15.93 0-28-6.6-6.85-5 4-.74 16.39-.99 26.01c-.26 9.61.1 18.61-.01 27.99s.05 17.74 0 27 .02 18.79 0 28 .01 17.82 0 27 0 18.84 0 28v54c0 9.15-.01 18.84 0 28s-.01 17.84 0 27-.03 18.85 0 28-.07 17.89 0 27 .25 18.32-.93 27.07c-1.18 8.76.69 18.11-.07 26.93s1.4 19-1 27c-3.64-13.91-4.99-26.88-5.93-42.07S273.11 528.77 273 513s.04-33 0-49 0-31.87 0-48-.05-32.77 0-49-.12-32.74 0-49-.27-32.76 0-49-1.04-31 1-47-3.26-29.77 3.78-45.22c7.03-15.46 22.4-2.78 21.15 12.29-1.26 15.08 3.44 30.48 3 46-.45 15.52.28 32.02.07 47.93s.02 32.88 0 49-.16 32.81 0 49-.44 32.85 0 49-.69 31.15-1 47-1.29 31.28-2 47c-.71 15.73-.07 32.39-1 48s1.52 31.4-3 46Zm-39-222v18c-10.7-1.57-19.94-6.53-28.25-13.75s-13.85-12.71-18.52-23.48-5.5-23.64-5.23-36.77-.14-28.04 0-42 .81-26.5 2-41 19.22-11.52 17 3 1.68 27.39 1 41 1.09 28.25 1 41 .91 25.01 6.92 35.08c6.01 10.06 14.03 15.38 24.08 18.92Zm53 60c-2.71-11.11 10.62-11.94 16.25-18.75S338.79 425.04 340 416c-7.62 11.18-18.33 22.69-31 28-3.81-12.87 8.17-14.26 14.75-22.25S332.83 406.54 335 396c2.16-10.55 3.95-22.99 3-35s1.2-24.43 0-37 1.62-22.46 1.78-35.22 13.72-16.18 15.21-2.77S357.6 307.47 358 320s-.11 24.3.99 36.01c1.11 11.7-.08 26.17-.99 36.99s-5.26 19.63-7.78 29.22c-2.51 9.6-8.36 15-15.47 21.53S318.44 454.81 309 456Zm397 23c3.29 7.53-.35 18.64 1 27s-4.28 3.01-6 2c-8.81-3.1-16.09-10.69-25.08-12.92-8.98-2.24-19.09-8.08-28-10-8.9-1.93-19.76-.53-28.94-5.06-9.19-4.52-15.5-9.62-24.21-13.79s-19.53-3.71-26.02-11.98c-6.48-8.27-13.69-11.14-21.98-16.02S529.05 429.44 521 425c6.59 11.49 8.45 27.62 19.75 36.25S562.89 476.29 574 485c-11.13 1.26-19.51-11.24-31.22-12.78-11.72-1.54-22.02-10.77-33.46-13.54-11.43-2.78-19.59-12.46-30.32-16.68 6.6 13.38 17.25 27.22 29 36-10.61-6.98-27.15-7.87-35.75-18.25-8.61-10.38-17.37-17.12-28-26-10.64-8.87-10.34-29.44-9.25-42.75 13.97 7.54 12.74 28.57 25 37 .38-6.01-3.02-11.04-3-17-.72-3.99-.37-8.16 0-12 0-16.91 12.09-4.5 12.93 5.07.84 9.58 10.27 13.3 16.32 19.68S496.39 439.42 506 440c-5.99-8.46-5.05-16.84-11.3-25.69-6.26-8.86-4.75-18.56-7.7-29.31s-4.65-18.65-5.93-31.07c-1.28-12.43 12.42-3.01 22.93-5.93-.13 13.24 12.98 20.66 14.98 33.02 1.99 12.37 2.24 26.66 12.02 35.98 4.87-12.21-7.96-28.57 1-41 9.43 11.71 6.5 30.06 14.77 42.23S566.25 437.93 579 444c-2.78-7.52-4.27-12.86-5.99-21.01-1.73-8.14-3.53-13.99-2.08-23.06 1.44-9.08.78-14.37 8.84-3.7 8.07 10.66 12 23.66 19.23 34.77.25-10.5-5.09-22.61-6-34 14.47-1.07 11.96 19.16 14.99 29.01 3.04 9.85 7.64 21.51 18.01 25.99.23-2.83-2.72-6.76 0-9 12.01 25.48 40.72 36.93 65 46-16.64-16.93-42.74-29.44-53-53 12.08 4.93 21.87 14.87 33.25 21.75 11.37 6.89 25.14 13.3 34.75 21.25Zm-202 16c14.35 6.79 25.44 10.58 41 15 15.57 4.41 30.49-15.58 45.07-10.07 14.59 5.5 25.5 14.69 41.93 15.07-5.02 3.76-12.25 11.99-19.69 13.31-7.45 1.31-17.35-5.66-23.56 3.44-6.2 9.11-16.87.86-24.82.32s-14.96-8.9-22.01-11.99-18.95-7.86-26-1.16c-7.04 6.71-15.82 4.87-23.6.76-7.78-4.12-12.23-9.93-17.32-16.68-11.16-10.11-27.58-13.19-41-18 3 10.55-10.56 2.26-16.69-.31-6.14-2.56-12.34-10.4-18.31-13.69 2.35-1.55 6.09-1.21 9-2-4.66-6.56-12.88-12.61-15-21 6.41 2.06 13.5 10.5 20.22 10.78 6.73.27 14.23 13.6 20.46 10.88 6.22-2.72-8.23-11.86-12.38-14.96-4.14-3.11-12.03-13.75-12.3-19.7 32.96 17.35 62.44 42.12 95 60Zm-59 26c-6.5 3.65-14.91 3.9-22.02 1.02-7.12-2.87-13.24-3.73-20.21-2.79s6.02 12.31 6.23 15.77c-17.48-2.13-30.68 5.94-48 5s-35.6.7-53 0v-23c11.66 8.41 25.19-.25 37.07 1.93 11.89 2.18 23.29 7.03 34.93 10.07-4.01-7.45 2.11-5.15 7-7-4.56-3.46-11.45-8.79-17.07-9.93-5.63-1.13-15.08-5.85-18.68-9.32-3.59-3.47-16.51-10.05-9.22-11.72 7.28-1.67 18.49 1.51 25.64-2.36 7.16-3.87 15.29 3.54 22 4.66 6.72 1.11 11.75 5.9 17.41 9.59s12.4 6.65 18.61 9.39c6.22 2.73 14.99 4.39 19.31 8.69Zm-190 17c-11.24 1.29-22.25 3.67-34 3 3.66-4.15 11.21-22.16 3.3-25.3s-7.1 17.86-13.3 20.3c-2.28-9.17-.37-19.41-1-29 6.63-4.24 13.4-2.57 20.07.93 6.68 3.49 14.89 2.57 21.93 5.07s.95 18.8 3 25Zm446-7c1.52.4 2.56.17 4 1 2.68 1.54 1.66 11.97-5 10s-12.3 2.18-18-1c-3.46-1.93-3.86-9.71-8.08-9.92s-10.01.99-12.92-4.08c12.97-9.72 27.08-.97 40 4Zm-84 21c24.41 0 49.25-2.02 74-1-5.19 3.51-10.36 8.26-16 11-1.15.83-1.73 1.29-3 2-8.12 4.52-18.38 5.56-27.07 8.93-8.7 3.36-14.65 10.86-24.15 11.85-9.51.98-16.47 7.34-24.78 11.22-7.48 3.5-16.58 5.68-25 6-13.34 2.86-26.81 3.72-39.23 10.77S501.57 618 487 618c-8.8 0-17.26 1.15-26 2-20.52 1.99-43.59 2.11-64.01-1.99-20.41-4.1-40.76-.27-60.99-2.01.51-3.57-.61-6.64-1-10-2.74 1.09-3.83 5.03-7 5-1.71-2.03-.31-4.96-2-7-2.33.14-4.94 2.61-5 5-4.97-.36-9.68-.01-14 2v-33c0-11.99-3.62-27.75 11-26 14.62 1.76 23.4-.63 37 0s24.63 0 38 0c36.06-3.49 75.1-1 112-1s76.02-2.48 112 1Zm-361 18c.13-.22 1 0 1 0 .16-.97-.13-2.02 0-3 1.66 14.6 1.67 32.48 0 47-1.7 1.47-7.61.09-9.69 2.31-2.09 2.21-5.66 2.97-8.31 3.69 1.9-2.9.62-6.7 1-10-4.02-.75-5.19 4.14-6 7-2.78-3.78 1.85-14.27-6-14-1.18 3.19-1.11 7.37-3 10-2.64-2.93-3.37-8.46-8-9-1.92 5.88 2.33 11.79 5 17-8.92.19-13.89-.95-22.22 2.78-8.33 3.72-14.25-3.85-22.8-2.76-8.56 1.1-11.05-1.91-7.98-11.02s.7-14.7-1-23c-4.78-7.56-15.12-5.67-21-10-3.66-2.69-1.38-6.83-1-10 .11-5.31.97-9.94 2-15h108zm545 9c-20.26 3.56-43.51 4.99-64 1 9.41-4.21 20.8-5.32 31.07-7.93 10.28-2.6 23.49 6.24 32.93 6.93Zm-67 24c-6.11 3.77-16.86 1.57-25.01 3.99-8.15 2.43-18.56.27-26.99.01s-19.83 3.59-26-1c23.54-16.08 52.35-9.41 78-3Zm44 45c3.97 1.1 8.93-11.76 12.68-8.66 3.75 3.09-3.83 9.43-6.43 12.91s-10.54 8.12-15.92 5.42-7.39-4.81-12.08-9.92 4.9-4.98 8.75-.75c.11-5.44-2.76-12.13 0-17 3.47 3.4 2.87 9.3 7 12 .83-6.55 2.64-12.88 5-19 9.55 3.75-.19 17.22 1 25Zm-388-4c10.75 4.37-5.31 9.8-7 15-2.76 14.85.04 32.85 0 48s-2.67 33.12 0 48c1.51 4.78 14.88 10.1 6 15-5.96 3.29-17.82.78-25 1s-18.85 1.69-25-1c-12.22-5.34 5.65-8.6 5.93-16.07.28-7.48-.47-21.11.07-29.93s-1.22-21.82 0-31-2.83-21.11 0-30-16.47-12.89-8-19c5.49-3.96 18.77-.56 26-1s20.64-1.59 27 1Zm119 0c15.54.59 32.87 6.67 37.92 23.08 5.06 16.4-7.81 32.65-23.92 34.92 17.93 3.09 34.86 18.81 31 39s-22.07 28.97-41 29c-12.68 2.27-27.48 1.07-41 1s-29.32 1.4-42-1c-5.07-.96-8.95-4.69-3.75-8.75 5.19-4.07 6.71-1.8 8.75-8.25 1.28-7.14 0-15.73 0-23 0-10.28-.59-22.96 0-33s-1.51-24.9 0-34-19.67-13.85-7-19c11.2-4.56 27.39.02 40-1s29.08-.7 41 1Zm176 0c5.51 3.04 3.25 15.37 4 19s-.39 22.42-7.75 11.75C673.88 664.09 656.92 664 644 664c-4.27 0-8.75.38-13 0-2.45 3.31-.98 12.8-1 17s-1.85 14.07 2 16c7.01 1.08 18.27-1.93 24.22-1.78 5.95.16 13.16-12.55 16.7-5.14 3.53 7.42-2.23 17.56.08 25.92s-3.63 16.27-9.3 7.3c-5.68-8.96-12.78.03-21.7-4.3s-14.83 6.6-12 14c2.84 7.4-3.24 19.99 1.31 24.69 4.55 4.71 16.06 7.68 4.69 12.31-6.62 2.69-17.42.99-25 1s-18.44 1.67-25-1c-11.58-4.71 4.34-10.74 6-16 2.59-14.43-.55-30.24 0-45s1.01-31.19 0-46c-.4-5.84-12.47-15.1-7-19 5.71-4.06 16.55-.04 24-1s18.21.11 26 0 17.33-.77 25 0 18.64-2.51 25 1Zm-438 19c-12.07.02-26.14 4.16-38.02 1.02-11.89-3.13-25.73-.2-36.98-4.02 10.52-3.8 25.19-10.3 37.07-5.07 11.89 5.22 28.07-.82 37.93 8.07Zm66 33c-13.69 6.1-31.91 1.68-46-1 14.31-8.12 31.14-.83 46 1Zm448 17c-1.94-4.38-7.21-8.87-4-14 5.41 2.3 6.47 9.68 4 14Zm11-2c-4.41-1.56-1.34-10 2-12 2.95 3.63-1.52 8.12-2 12Zm-84 46c10.68 0 27.83-3.28 32.31 6.7 4.47 9.97 9.64 15.72 13.99 25 4.35 9.27 9.83 16.74 14.45 25.55 4.63 8.81 8.92 16.57 14 25 5.09 8.42 8.65 17.6 14.25 25.75-33.11-3.18-66.14-6.75-100-7h-33c-53.48 0-98.43 9.11-139 44-.55.47-1.35 2.93-2 1-4.07-3.91.03-15.01-1-21s.16-15.44 0-22-.61-15.38 0-22-2.12-16.55 1-22c.48-.84.92-1.84 2-2 .49-.07 1 0 1 0 8.83-9.22 21.14-12.77 33.23-17.77 12.09-5.01 26.93-8.07 40.79-10.21 13.87-2.13 30.8-6.01 45.98-5.02s31.04-7.41 20-25h33c3.1 0 6.64.77 9 1ZM496 904c-1.02 1.81-7.82-6.82-9-8-29.36-25.09-69.47-37-108-37-4.15 0-8.57-.53-12-1h-61c-2.42.23-5.9 1-9 1-25.15 0-49.44 3.54-74 6 17.28-35.76 39.21-69.51 57-105 3.35-3.42 10.16-2 15-2h35c-9.57 19.48 8.79 25.04 25 23s33.66 2.34 49.22 3.78 29.79 4.43 44.8 8.2c15.02 3.76 21.84 8.17 36.23 15.77C499.63 816.36 496.23 835 496 851s.17 36.59 0 53ZM261 774c-4.56 8-8.94 15.57-13.3 23.7-4.37 8.12-9.3 16.2-13.62 24.38-4.32 8.19-8.91 16.53-13.38 24.62-4.47 8.08-9.22 16.35-13.62 24.38-4.4 8.04-9.63 16.19-13.85 24.15s-9.29 16.89-13.53 24.47c-4.25 7.57-15.13 21.17-1.7 20.3s24.04-.92 37-1 24.27-1.18 37-1 24.23-1.85 37-1 24.59-.56 37-1 25.54.07 38 0 24.62-.96 37-1 25.86.19 38 0 23.15-1.42 32.7 5.3c9.54 6.72 19.91 6.04 31.3 6.7s19.47-3.26 29.08-8.92 23.2-2.59 34.92-3.08 25.87.07 38 0 24.65 1.07 37 1 25.73-.59 38 0 24.37 1.76 37 1 24.45 1.32 37 1 24.63.41 37 1 25.55-.44 38 0c-28.46-56.5-61.78-111.12-92-167 9.38 3.46 12.42 16.11 18.31 24.7 5.88 8.58 11.25 18.3 16.46 27.53s10.43 17.68 15.98 27.02c5.56 9.33 10.58 18.09 16.17 27.83 5.58 9.74 9.95 16.63 15.85 27.15s9.28 15.93 16 28c6.72 12.06-10.79 14.28-23.77 12.77s-29.51.65-43-1-29.27 1.67-43 0-28.86-.66-43-1-27.62-1.34-42-1-28.86 0-43-1-28.96 1.82-43 0-23.23 4.46-35.02 8.98c-11.8 4.51-25.63 4.29-37.65.69-12.03-3.6-20.35-11.52-34.33-9.67-13.98 1.86-28.41-1.37-42.22.78s-29.93-1.28-43.78.22-28.08.28-42 1-30.61-1.61-44 0-29.31-.37-42 1-31.5-.26-42.67 1.33-32.04 1.39-29.4-10.4c2.63-11.8 12.43-17.2 16.37-27.63s11.37-17.25 16-27c4.64-9.74 11.28-18.23 16.47-27.53s10.66-17.86 16-27 10.57-18.76 16.48-27.52c5.92-8.75 9.36-20.17 17.75-26.25Zm378 92c33.89 0 66.9 1.37 100 4 13.49-.79 27.88 1.1 42 2-.26 1.39-2.05.78-3 1 7.26 1.56 10.04 14.34 14 20-18.66-.65-38.74-3.62-57-1 20.3 2.1 40.69 3.88 61 6 1.11 4.56 4.71 8.22 5 13-21.5-2.3-42.92-4.98-65-5-3.43 0-7.31-.74-10-1h-8c-5.39 0-11.36-.56-16-1h-7c-12.44 0-26.4 1.18-38 1 17.9 2.56 38.1 2.03 56 4s37.62 2.85 55 5 37.82-3.2 45 15c-30.68-.29-60.79-2.81-91-5-9.25.54-19.24.19-29-1s-19.15-2.25-29.02-2.98c-9.87-.72-20.19-1.04-29.99-2.01s-22.32.42-31.99-.01-21.23.99-30 2c-8.78 1.01-18.97 2.94-26.22 5.78-7.26 2.84-16.87 9.29-20.03.47-3.15-8.82-18.51-6.9-18.75-12.25-.32-7.28 11.26-12.68 16.25-17.75 4.98-5.08 14.93-7.96 21.83-12.17 6.89-4.21 16.54-6.55 24.93-9.07 8.38-2.53 18.62-5.03 28-6s21.82-2.12 30.99-3.01h-8c4.92-1.62 13.15-1.69 18 0Zm-147 47c.69 4.53-14.22 6.94-18.75 14.25s-17.06-1.45-25.27-3.23c-8.22-1.77-20.93-4.34-30.98-5.02s-23.93-1.15-35-1-23.86.3-35 1-22.6 1.44-33 1c-27.3 2.64-55.33 7-83 7-2.42.23-5.91 1-9 1-11.93 0-23.08 1.1-35 1 4.17-16.56 20.14-13.38 34-15 13.87-1.62 29.92-3.34 44-5-2.59.07-8.46-1.93-11-2-18.51 1.26-37.43 1.84-56 3 3.57-9.04 7.22-13.43 17-13s18.31-1.96 28-2 19.24-2.05 29-2c2.75-.27 6.58-1 10-1 7.61 0 14.49-1 22-1 4.71-.46 10.6-1 16-1 2.95 0 6.06.28 9 0 14.76-1.43 32.31-1.42 47 0 25.28 0 49.71 5.44 73 13-21.41-14.86-48.76-17.36-75-18-3.42 0-7.32-.74-10-1h-24c-6.02.58-13.29 1-20 1h-12c-3.07.3-7.25 1-11 1-26 0-51.31 4-77 4-1.93.19-7.55 2.52-10 1-.92-.57 4.03-12.76 7.31-15.69 3.27-2.94 15.07-3.02 21.36-3.64s16.29-1.74 23.4-2.6c7.12-.86 16.4.11 23.93-1.07s17.15-.39 25-1 15.83-1.51 24-1 18.01-.55 26 0 16.03.7 23.67 1.33S399.8 868.94 407 870s14.43 3.17 21.07 4.93c6.65 1.76 13.04 3.49 19 6 5.97 2.5 12.08 5.52 17.16 8.84s11.31 5.45 15.02 9.98c3.7 4.53 11.82 7.16 12.75 13.25Z"/><path fill="#2B0E02" d="M828 173c0-13.95-1-27.14-1-41-.33-3.4-1-7.92-1-12 0-8.71.7-23.18-1-31s4.36-23.37-4-27c0 0-.61.2-1 0 6.68 18.39 3.25 40 5 60s.45 41.52 3 61z"/><path fill="#7E6B5C" d="M225 83c.45-3.72 1-8.55 1-13-.84 3.84-.91 8.47-1 13Z"/><path fill="#240B00" d="M239 74c22.45-2.03 45.45.76 68 0s45.42 0 68 0c145.19-.67 291.57 1.33 436-1H483c-9.07 0-17.94-.01-27 0s-17.9-.01-27 0-18.91-.03-28 0-17.97-.07-27 0-18.03-.15-27 0-19.2-.31-28 0-18.66-.72-27 0-19.56-1.61-27 0-21.13-4.04-26 1Z"/><path fill="#903C05" d="M239 75c22.45 2.03 45.45-.76 68 0s45.42 0 68 0c0 0 .04-1 0-1-22.58 0-45.45-.76-68 0s-45.55-2.03-68 0z"/><path fill="#EE6C10" d="M192 213c-3.07-1.79-6.91-5.14-9.25-7.75S174.9 196.38 171 199c-.88 27.81 1.61 57.02-1 84v11c0 .97.12 2.04 0 3 5.33-3.27 16.17 2.45 22 0-.69-7.59.34-16.2 1-23 0-13.92-.51-30.98 15.78-36.22S232.47 249.07 233 263c1.5 10.53 1 22.74 1 34h23v-55c0-21.81.02-47.37 7.08-66.92 7.05-19.56 35.18-21.58 41.6-.76 6.42 20.83 6.2 45.58 5.32 68.68s2.25 49.74 0 73h13c0-16-1.96-50.56 22-50 6.86-4.16 8.58-17.27 15.25-22.75s10.74-14.3 18-20c7.25-5.7 12.44-12.53 20-18s14.62-10.19 22.98-15.02c8.36-4.84 16.43-8.45 25.84-12.16 9.42-3.7 19.6-6.63 30-9s23.65-3 34.93-3.07 24.71.71 35.07 2.93c10.37 2.21 20.23 4.85 29.62 8.38 9.4 3.52 17.45 7.47 26.01 12 8.55 4.52 15.97 9.8 23.55 15.44s13.06 11.51 20 18c6.93 6.5 12.3 12.77 17.67 20.33 5.37 7.57 10.68 14.58 14.85 23.15s8.87 16.96 11.55 26.45c2.68 9.48 6.37 20.54 8.68 30.32 1.86 0 4.18-.38 6 0-.01-9.86-.64-20.19 0-30s-1.73-20.37 0-30c1.37-7.67 10.62-6.54 17-6s15.52-1.74 21 1c2.67 1.09 2.91 1.32 4 4 2.33 19.34.33 40.83 1 61 20.52-1.49 41.53 1.98 62 0 2.93-.28 5.6-1.72 9 0v-1c-2.23-3.01-1-10.05-1-14v-10c-18.56.42-36.22-2.68-53-9 16.08-4.32 34.58-2.65 52-3-.33-3.6 0-7.39 0-11 .77-15.28-1.49-29.8-1-45-42.12-1.12-86.56 5.96-127-4 9.9-9.89 29.76-2.47 42.32-9.68 12.57-7.21 27.32-9.86 40.61-3.25 13.28 6.62 29.23 3.38 43.07 7.93.4-17.61-1-34.47-1-52-.23-2.42-1-5.91-1-9 0-14.81-1-29.06-1-44-.3-3.08-1-7.25-1-11 .71-10.26-1.06-19.91-1-30H375c-22.58 0-45.45.76-68 0s-45.55 2.03-68 0c0 19.49-3.55 40.92-4 60s-3.88 39.4-7.01 56.99S208.45 222.57 192 213Zm109-88c2.66-.81 5.2-.51 8-1 1.3-.23 3.1-.94 5-1 1.98-.07 4.03.19 6 0 6.85-.66 14.79-2.26 22.01-2.99s13.02-4.2 20.01-5.99c7-1.78 15.74-3.11 22.99-1.03 7.24 2.08 11.02 5.11 18.02 7.98 6.99 2.88 12.67 2.92 20.97 4.03s12.29 3.08 22 4c9.71.91 11.07 6.99 0 6s-16.29.45-26 0-15.95.15-25 0-17.21-.01-26 0-17.39-.19-26 0-16.9-.07-25.02-.98c-8.13-.91-15.54.15-22.98-3.02-.65-3.47 3.11-5.71 6-6Zm416-9c8.97.61 16.4 3.14 24.23 7.77S758.7 129.78 768 130s19.24 2.9 28.07 4.93c8.84 2.02 17.23 10.83 4.91 12.05-12.33 1.21-18.9 2.02-30.98 2.02-2.42.23-5.91 1-9 1-11.55 0-23.49-1.29-35 0s-22.27.22-34 0-24.11-.87-36 0-22.43-2.18-34-2c-11.57.19-19.12-9.41-6.78-12.78 12.35-3.37 21.18.04 31.8-4.2 10.63-4.23 20.44-1.24 30.06-5.94 9.61-4.71 15.83-9.08 26.92-9.08 4.22-.41 8.77-.76 13 0Z"/><path fill="#8C3F08" d="M813 116c0-3.75-.7-7.92-1-11 0 3.75.7 7.92 1 11Z"/><path fill="#3F1800" d="M320 123c.99.1 2.01-.08 3 0-1.96 1.52-7.11 1.72-9 0-1.9.06-3.7.77-5 1 2.31-1.01-6.2.67-8 1-2.89.29-6.65 2.53-6 6 7.44 3.17 14.85 2.11 22.98 3.02 8.12.91 16.41 1.17 25.02.98s17.21.01 26 0 16.95-.15 26 0 15.29-.45 25 0 14.93-.99 26 0 9.71-5.09 0-6c-9.71-.92-13.7-2.89-22-4s-13.98-1.15-20.97-4.03c-7-2.87-10.78-5.9-18.02-7.98-7.25-2.08-15.99-.75-22.99 1.03-6.99 1.79-12.79 5.26-20.01 5.99S326.85 122.34 320 123Z"/><path fill="#934005" d="M704 116c4.3 0 8.71-.29 13 0-4.23-.76-8.78-.41-13 0Z"/><path fill="#3F1800" d="M760.999 150c2.42-.23 5.9-1 9-1 12.08 0 18.65-.81 30.98-2.02 12.32-1.22 3.931-10.03-4.909-12.05-8.83-2.03-18.771-4.71-28.071-4.93s-18.94-1.6-26.77-6.23-15.26-7.16-24.23-7.77c-4.29-.29-8.7 0-13 0-11.09 0-17.309 4.37-26.919 9.08-9.62 4.7-19.43 1.71-30.06 5.94-10.62 4.24-19.451.83-31.801 4.2-12.34 3.37-4.79 12.97 6.78 12.78 11.57-.18 22.11 2.87 34 2s24.27-.22 36 0 22.49 1.29 34 0 23.45 0 35 0Z"/><path fill="#765035" d="M827 132c0-4.08-.67-8.6-1-12 0 4.08.67 8.6 1 12Z"/><path fill="#180800" d="M320 123c-1.97.19-4.02-.07-6 0 1.89 1.72 7.04 1.52 9 0-.99-.08-2.01.1-3 0Z"/><path fill="#1A0800" d="M301 125c1.8-.33 10.31-2.01 8-1-2.8.49-5.34.19-8 1Z"/><path fill="#8F3F07" d="M761 150c3.09 0 6.58-.77 9-1-3.1 0-6.58.77-9 1Z"/><path fill="#883F08" d="M815 169c0-3.09-.77-6.58-1-9 0 3.09.77 6.58 1 9Z"/><path fill="#FEA822" d="M346 266c9.65.23 14.64 7.79 17 16 .54 1.87 1.68 4.49 2 6 3.64 8.47 2.22 22.02 3 34s1.39 25.36 1 38 .77 26.61-1 39c8.81-3.74 13.05-10.68 18.3-18.7 5.26-8.01 19.12-9.1 26.7-9.3 7.28-3.89 11.6-8.55 20-10-.56-8.23 1.44-17.95 3.78-25.22s5.38-13.68 9.19-19.81c3.81-6.12 8.42-10.24 13.78-15.22 5.36-4.97 10.91-7.74 17.33-11.67s15.04-5.7 22.59-7.41c7.56-1.71 18.64-2.31 26.33-.67s15.38 3.22 22.08 6.92c6.69 3.71 11.82 6.19 17.17 11.83 5.35 5.65 10.3 8.9 14.05 15.95 3.76 7.05 7.14 10.69 9.48 19.52 2.33 8.83 2.87 14.57 3.22 25.78s-10.04 12.41-8 1-.04-16.03-1.98-25.02c-1.93-9-5.94-13.16-9.79-20.21s-8.87-9.54-14.46-14.54-10.9-7.97-18-11S523.2 287.09 515 287s-18.6 1.46-26.02 3.98c-7.43 2.51-12.43 6.15-18.73 10.27-6.29 4.13-9.16 8.87-15 14-5.85 5.13-5.48 12.71-10.22 18.77-4.75 6.07-1.7 18.81-5.03 24.98 9.37-6.5 13.49-12.69 24.31-18.69 10.81-6.01 23.26-2.26 35.68-3.3 12.43-1.04 10.72 17.47 20.76 21.24 10.05 3.77 17.76 9.61 23.5 19.5 5.74 9.9 24.89-7.35 32.05 1.95 7.16 9.29 25.69 1.41 31.95 11.05 6.25 9.64 5.71 21.23 17.52 24.48s17.44 10.98 27.55 15.45S669.88 440.67 677 449c2.8 2.3 11.48 7.02 14.23 8.77 2.75 1.76 13.6 9.13 14.77 7.23.35-31.52-3.91-65.81-1-98-10.36 0-21.74.75-32 0s-22.87 2.37-32-1c-1.4-.52-4.14-1.57-5-3-2.6-4.29-.76-11.61-1-17s-.5-12.52 0-18c-.93-7.55 11.2-6.51 17-6s17.71-1.02 24 0 18.03-2.67 23 1h1c-2.31-9.78-6-20.84-8.68-30.32-2.68-9.49-7.38-17.88-11.55-26.45s-9.48-15.58-14.85-23.15c-5.37-7.56-10.74-13.83-17.67-20.33-6.94-6.49-12.42-12.36-20-18s-15-10.92-23.55-15.44c-8.56-4.53-16.61-8.48-26.01-12-9.39-3.53-19.25-6.17-29.62-8.38-10.36-2.22-23.79-3-35.07-2.93s-24.53.7-34.93 3.07-20.58 5.3-30 9c-9.41 3.71-17.48 7.32-25.84 12.16-8.36 4.83-15.42 9.55-22.98 15.02s-12.75 12.3-20 18c-7.26 5.7-11.33 14.52-18 20S352.86 261.84 346 266Zm170-80c4.06 2.62-.04 13.94 1 19s-.18 13.9 0 20 .54 13.25 0 20 1.63 12.54 0 20-10.07 1.76-8-5-.77-13.69 0-20-.29-13.9.78-19.22.54-15.64.22-19.78-.59-19.26 6-15Zm-52 8c4.86 1.73 3.17 12.4 6.32 16.68 3.16 4.28 3.82 12.07 6.46 17.54 2.63 5.48 3.62 11.01 5.22 17.78s4.83 9.46 6.32 17.68-6.28 5.56-7.31-1.69c-1.04-7.24-4.74-11.52-6.34-17.66-1.59-6.15-3.81-11.94-5.98-17.02-2.16-5.09-3.84-14.09-6.01-17.99S456.55 191.36 464 194Zm101 0c4.9 3.17-2.84 14.09-2.93 19.07-.09 4.99-4.34 12.35-5.85 18.15-1.5 5.8-3.61 11.8-5.54 18.46s-3.61 10.03-6 18c-2.39 7.96-9.59 3.06-5.91-3.91 3.68-6.96 2.78-12.35 5.55-18.45 2.78-6.1 3.44-13.06 5.61-18.39 2.16-5.33 4.37-14.09 5.85-18.15 1.47-4.07 3.4-18.54 9.22-14.78Zm-145 23c4.95 1.42 7.57 12.63 11.77 16.23s8.11 12.74 12 17 6.97 13.05 11.48 16.52c4.5 3.47 10.53 17.88 3.08 15.92-7.45-1.97-7.11-11.89-12.1-15.9s-7.77-12.82-11.98-17.02c-4.21-4.19-7.09-13.41-11.5-16.5S411.13 214.46 420 217Zm189 0c5.43 1.81-3.29 11.66-5.77 15.23s-7.53 10.67-10.48 15.52c-2.96 4.85-7.52 9.54-10.52 15.48s-7.63 7.84-10.98 15.02c-3.36 7.18-12.23 4.68-7-2 5.24-6.68 6.85-9.52 10.67-15.33s7.24-10.39 10.83-15.17c3.6-4.77 7.21-11.86 10.5-15.5 3.3-3.64 7.4-15.03 12.75-13.25Zm-224 34c5.16.9 8.91 8.19 13.75 11.25 4.84 3.05 10.33 6.79 15 11 4.66 4.22 9.73 6.53 14.48 11.52s8.94 5.87 14.02 11.98c5.07 6.11-6.15 6.84-10 1s-9.81-7.52-14.48-11.52-9.06-9.04-14.02-11.98-10.2-8.82-15-11c-4.79-2.19-13.72-13.99-3.75-12.25Zm260 0c5.05 3.12-6.14 10.75-9.25 13.75-3.1 3.01-10.44 7.72-14.5 11.5-4.07 3.78-9.2 6.58-14 11-4.79 4.42-8.6 6.43-14 12-5.4 5.56-13.17 1.72-6.5-3.5 6.66-5.23 8.5-7.79 14-12s9.24-7.63 14-11 9.65-10.01 14-12S640.74 248.37 645 251Zm23 43c5.45 3.57-6.21 9.04-10.08 9.92-3.86.89-11.16 4.36-15.99 6.01-4.84 1.64-11.1 4.04-16.16 6.84s-10.67 2.11-15.99 6.01-14.33-.82-7.7-4.7 10.12-3.5 15.99-6.01c5.87-2.5 11.25-4.5 16.61-6.39s10.69-5.84 15.54-6.46c4.86-.61 13.38-8.1 17.78-5.22Zm-288 4c6.31.88 11.25 7.86 18.22 8.78 6.98.92 11.18 7.91 18.86 8.14 7.68.24 14.23 10.77 5.25 9.75s-11.49-6.78-19.01-7.99c-7.51-1.21-11.7-8.06-18.55-8.45-6.84-.4-15.27-11.7-4.77-10.23Zm13 44c6.37.62 11.69 3.73 19 2s11.45 7.22 3.99 6.99c-7.45-.23-13.74.74-19.99-.99s-13.88 2.72-18.23-2.77 12-5.54 15.23-5.23Zm233 3c3.61 2.45-2.11 8.48-6.02 6.98-3.92-1.51-10.49 2.32-14.65-.31s2.25-7.71 5.89-6.45 11.51-2.44 14.78-.22Z"/><path fill="#746221" d="M295 618c4.52-14.6 2.07-30.39 3-46s.29-32.27 1-48c.71-15.72 1.69-31.15 2-47s1.44-30.85 1-47 .16-32.81 0-49-.02-32.88 0-49-.21-33.09 0-49-.52-32.41-.07-47.93c.44-15.52-4.26-30.92-3-46 1.25-15.07-14.12-27.75-21.15-12.29-7.04 15.45-1.74 29.22-3.78 45.22s-.73 30.76-1 47 .12 32.74 0 49 .05 32.77 0 49 0 32.87 0 49-.04 32 0 48-.11 33.23 0 49 1.13 31.74 2.07 46.93 2.29 28.16 5.93 42.07c2.4-8 .24-18.18 1-27s-1.11-18.17.07-26.93c1.18-8.75 1-17.96.93-27.07s.03-17.85 0-27 .01-18.84 0-28 .01-17.84 0-27 0-18.85 0-28v-54c0-9.16-.01-18.82 0-28s-.02-17.79 0-27-.05-18.74 0-28-.11-17.62 0-27-.25-18.38.01-27.99c.25-9.62 2.59-15.16.99-26.01s5.18-16.07 5-4 .08 17.47 0 28 .04 17.24 0 27 .02 18.55 0 28 0 17.71 0 27-.01 18.78 0 28-.02 17.82 0 27-.05 18.85 0 28-.11 17.9 0 27-.24 17.88 0 27-.08 18.18-1 27 .28 18.01 0 27-.12 18.97 0 28-.31 17.3-1 26 .27 19.41 0 28-.47 18.24 1 26 1.64 14.48 7 20Z"/><path fill="#A89D97" d="M165 185c3.16-1.15 7.51-1.55 11-1-4.23-1.23-7.04-1.12-11 1Z"/><path fill="#F17512" d="M516 186c-6.59-4.26-6.32 10.86-6 15s.85 14.46-.22 19.78-.01 12.91-.78 19.22 2.07 13.24 0 20 6.37 12.46 8 5-.54-13.25 0-20 .18-13.9 0-20 1.04-14.94 0-20 3.06-16.38-1-19Z"/><path fill="#290E03" d="M831 252c0-21.91-2-43.27-2-65-1.94 24.44.45 51.53 2 76z"/><path fill="#F07312" d="M464 194c-7.45-2.64-3.49 11.42-1.32 15.32s3.85 12.9 6.01 17.99c2.17 5.08 4.39 10.87 5.98 17.02 1.6 6.14 5.3 10.42 6.34 17.66 1.03 7.25 8.8 9.91 7.31 1.69S483.6 252.77 482 246s-2.59-12.3-5.22-17.78c-2.64-5.47-3.3-13.26-6.46-17.54-3.15-4.28-1.46-14.95-6.32-16.68ZM565 194c-5.82-3.76-7.75 10.71-9.22 14.78-1.48 4.06-3.69 12.82-5.85 18.15-2.17 5.33-2.83 12.29-5.61 18.39-2.77 6.1-1.87 11.49-5.55 18.45-3.68 6.97 3.52 11.87 5.91 3.91 2.39-7.97 4.07-11.34 6-18s4.04-12.66 5.54-18.46c1.51-5.8 5.76-13.16 5.85-18.15.09-4.98 7.83-15.9 2.93-19.07Z"/><path fill="#4C3C39" d="M156 287c4.1-28.68-1.07-61.24 0-90-1.96 14.73.95 30.14 0 45s.57 30.1 0 45Z"/><path fill="#210A00" d="M170 294v-11c0-6.71-.21-14.39 0-21s-.56-14.75 0-21-1.29-15.62 0-21-3.21-18.18 1-21c3.9-2.62 9.41 3.64 11.75 6.25s6.18 5.96 9.25 7.75c-3.1-2.62-22.04-25.92-23-10s-.27 30.63 0 46-2.13 30.75 1 45Z"/><path fill="#A84A08" d="M170 283c2.61-26.98.12-56.19 1-84-4.21 2.82.29 15.62-1 21s.56 14.75 0 21 .21 14.39 0 21 0 14.29 0 21Z"/><path fill="#F07212" d="M420 217c-8.87-2.54-1.66 13.16 2.75 16.25s7.29 12.31 11.5 16.5c4.21 4.2 6.99 13.01 11.98 17.02s4.65 13.93 12.1 15.9c7.45 1.96 1.42-12.45-3.08-15.92-4.51-3.47-7.59-12.26-11.48-16.52s-7.8-13.4-12-17S424.95 218.42 420 217ZM609 217c-5.35-1.78-9.45 9.61-12.75 13.25-3.29 3.64-6.9 10.73-10.5 15.5-3.59 4.78-7.01 9.36-10.83 15.17s-5.43 8.65-10.67 15.33c-5.23 6.68 3.64 9.18 7 2 3.35-7.18 7.98-9.08 10.98-15.02s7.56-10.63 10.52-15.48c2.95-4.85 8-11.95 10.48-15.52s11.2-13.42 5.77-15.23Z"/><path fill="#180600" d="M257 297v15c0 3.62.31 7.39 0 11 3.05-12.28.29-27.8 1-41s.21-27.55-1-40z"/><path fill="#746121" d="M256 396c-10.05-3.54-18.07-8.86-24.08-18.92-6.01-10.07-7.01-22.33-6.92-35.08s-1.68-27.39-1-41-3.22-26.48-1-41-15.81-17.5-17-3-1.86 27.04-2 41 .27 28.87 0 42 .56 26 5.23 36.77 10.21 16.26 18.52 23.48S245.3 412.43 256 414zm-34-25c-12.57-12.83-8.82-33.37-9-52s-1.33-41.87 2-60c5.22 36.2-2.21 76.5 7 112Z"/><path fill="#F07211" d="M385 251c-9.97-1.74-1.04 10.06 3.75 12.25 4.8 2.18 10.04 8.06 15 11s9.35 7.98 14.02 11.98 10.63 5.68 14.48 11.52 15.07 5.11 10-1c-5.08-6.11-9.27-6.99-14.02-11.98s-9.82-7.3-14.48-11.52c-4.67-4.21-10.16-7.95-15-11-4.84-3.06-8.59-10.35-13.75-11.25Z"/><path fill="#F07212" d="M645 251c-4.26-2.63-11.9 7.76-16.25 9.75s-9.24 8.63-14 12-8.5 6.79-14 11-7.34 6.77-14 12c-6.67 5.22 1.1 9.06 6.5 3.5 5.4-5.57 9.21-7.58 14-12 4.8-4.42 9.93-7.22 14-11 4.06-3.78 11.4-8.49 14.5-11.5 3.11-3 14.3-10.63 9.25-13.75Z"/><path fill="#200A00" d="M748 262c-1.09-2.68-1.33-2.91-4-4 5.48 6.71 2.16 20.48 3 31s-1.45 24.07 1 34c-.91-9.99 1.21-21.13 0-31s2.4-20.47 0-30Z"/><path fill="#3F1601" d="M222 371c-9.21-35.5-1.78-75.8-7-112-3.33 18.13-2.18 41.37-2 60s-3.57 39.17 9 52Z"/><path fill="#8C4A0C" d="M234 354c-.38-18.98 0-38.01 0-57 0-11.26.5-23.47-1-34 1.15 30.04-2.53 61.77 1 91Z"/><path fill="#1E0A01" d="M706 323v1c4.08-3.93-.45-14.21 1-20s-1.25-14.84 0-21-1.45-14.62-1-20c-1.73 9.63.64 20.19 0 30s-.01 20.14 0 30Z"/><path fill="#1A0200" d="M834 368c.53-8.59 0-17.39 0-26-.33-3.4-1-7.92-1-12v-39c-.27-2.75-1-6.58-1-10v-14c-.79 34.15-.68 71.82 2 106 .08-1.66-.1-3.34 0-5Z"/><path fill="#994707" d="M192 297c0-.04 1 0 1 0v-23c-.66 6.8-1.69 15.41-1 23Z"/><path fill="#964407" d="M818 286h1c0-3.75-.7-7.92-1-11 0 3.61-.33 7.4 0 11Z"/><path fill="#746121" d="M309 456c9.44-1.19 18.64-5.72 25.75-12.25s12.96-11.93 15.47-21.53c2.52-9.59 6.87-18.4 7.78-29.22s2.1-25.29.99-36.99c-1.1-11.71-.59-23.48-.99-36.01s-1.52-20.58-3.01-33.99-15.05-9.99-15.21 2.77S336.8 311.43 338 324s-.95 24.99 0 37-.84 24.45-3 35c-2.17 10.54-4.67 17.76-11.25 25.75S305.19 431.13 309 444c12.67-5.31 23.38-16.82 31-28-1.21 9.04-9.12 14.44-14.75 21.25S306.29 444.89 309 456Zm39-166c-1.25 36.19 2.55 73.65-2 109 1.02-34.74.3-73.66 2-109Z"/><path fill="#F07111" d="M433 361c2.73-.47 4.63-.36 7-2 3.33-6.17.28-18.91 5.03-24.98 4.74-6.06 4.37-13.64 10.22-18.77 5.84-5.13 8.71-9.87 15-14 6.3-4.12 11.3-7.76 18.73-10.27 7.42-2.52 17.82-4.07 26.02-3.98s17.67 1.2 24.77 4.23 12.41 6 18 11 10.61 7.49 14.46 14.54 7.86 11.21 9.79 20.21c1.94 8.99 4.02 13.61 1.98 25.02s8.35 10.21 8-1-.89-16.95-3.22-25.78c-2.34-8.83-5.72-12.47-9.48-19.52-3.75-7.05-8.7-10.3-14.05-15.95-5.35-5.64-10.48-8.12-17.17-11.83-6.7-3.7-14.39-5.28-22.08-6.92s-18.77-1.04-26.33.67c-7.55 1.71-16.17 3.48-22.59 7.41s-11.97 6.7-17.33 11.67c-5.36 4.98-9.97 9.1-13.78 15.22-3.81 6.13-6.85 12.54-9.19 19.81S432.44 352.77 433 361Z"/><path fill="#5D371B" d="M833 291c0-3.42-.73-7.25-1-10 0 3.42.73 7.25 1 10Z"/><path fill="#2B0F00" d="M367 393c.1-2.66 0-5.34 0-8v-57c0-13.16.71-27.38-2-40-.32-1.51-1.46-4.13-2-6 3.79 34.8 1.87 74.83 4 111Z"/><path fill="#FDA822" d="M819 298v-12h-1c-17.42.35-35.92-1.32-52 3 16.78 6.32 34.44 9.42 53 9Z"/><path fill="#E6AC22" d="M365 288c2.71 12.62 2 26.84 2 40 .46 4.71 1 10.6 1 16 0 13.6.24 28.19-1 41 0 2.66.1 5.34 0 8 .28 2.81-.2 5.49-1 8 8.61-3.58 16.11-8.29 21.08-17.92 4.98-9.62 18.25-7.99 25.92-12.08-7.58.2-21.44 1.29-26.7 9.3-5.25 8.02-9.49 14.96-18.3 18.7 1.77-12.39.61-26.36 1-39s-.22-26.02-1-38 .64-25.53-3-34Z"/><path fill="#401C06" d="M348 290c-1.7 35.34-.98 74.26-2 109 4.55-35.35.75-72.81 2-109Z"/><path fill="#F07312" d="M668 294c-4.4-2.88-12.92 4.61-17.78 5.22-4.85.62-10.18 4.57-15.54 6.46s-10.74 3.89-16.61 6.39c-5.87 2.51-9.36 2.13-15.99 6.01s2.38 8.6 7.7 4.7 10.93-3.21 15.99-6.01 11.32-5.2 16.16-6.84c4.83-1.65 12.13-5.12 15.99-6.01 3.87-.88 15.53-6.35 10.08-9.92Z"/><path fill="#200800" d="M168 356c-.19-.41 0-1.5 0-2v-1c-.58-.87-.82-.68-1-2-.18-1.27 0-2.71 0-4-.53-3.91-.41-8.19 0-12 0-1.66-.08-3.34 0-5 .29-5.76 1.44-12.73 2-18-.03-1.67 0-3.33 0-5 0-2.4-.6-5.69 0-8-.22-.95.39-2.74-1-3-.71 10.29-.56 22.03-2 32-1.45 9.97-1.59 21.37 2 28Z"/><path fill="#FBA822" d="M169 299c-.6 2.31 0 5.6 0 8 .28 2.94 1.86 7.35 1 11-1.87-1.14-.61-4.13-1-6-.56 5.27-1.71 12.24-2 18 .18 6.17 3.51 18.5 1 24 0 .5-.19 1.59 0 2 7.38 15.42 13.19 31.8 20.7 47.3s29.71 20.72 26.3 41.7c2.4 5.57 13.56 4.82 19.07 6.93 5.52 2.1 16.11-3.66 20.93-5.93.05-.35.95-.77 1-1v-15c-3.54-4.06-14.34-3.16-18.92-7.08-4.58-3.91-11.85-5.01-16-10-4.14-4.99-9.28-7.28-13.33-12.67-4.04-5.4-6.94-9.77-9.77-16.23-2.84-6.45-4.36-13.24-5.2-20.8s-.88-16.98-.78-25.22 0-17.65 0-26c0-4.93-.44-10.09 0-15-5.83 2.45-16.67-3.27-22 0-.12.98-.87 1.49-1 2Z"/><path fill="#714A0D" d="M192 312c.42-4.32 1-9.94 1-15 0 0-1-.04-1 0-.44 4.91 0 10.07 0 15Z"/><path fill="#FBA822" d="M234 354c.12 6.09 3.42 18.35 6.7 22.3 3.27 3.96 12.18 14.82 15.3 11.7 2.84-4.59-1.07-14.42 0-20s0-14.15 0-20v-22c0-4.74.61-10.01 1-14v-15h-23c0 18.99-.38 38.02 0 57Z"/><path fill="#52403C" d="M155 307c.25-2.6.11-6.41 0-9-.16 2.98 0 6.01 0 9Z"/><path fill="#F07311" d="M380 298c-10.5-1.47-2.07 9.83 4.77 10.23 6.85.39 11.04 7.24 18.55 8.45 7.52 1.21 10.03 6.97 19.01 7.99s2.43-9.51-5.25-9.75c-7.68-.23-11.88-7.22-18.86-8.14-6.97-.92-11.91-7.9-18.22-8.78Z"/><path fill="#C0A78E" d="M833 313c0-.04 1 0 1 0 0-4.41-.64-9.27-1-13z"/><path fill="#FDCC2B" d="M169 312c.39 1.87-.87 4.86 1 6 .86-3.65-.72-8.06-1-11 0 1.67-.03 3.33 0 5Z"/><path fill="#984707" d="M820.001 322c0-4.74-.61-9.94-1-14 0 3.95-1.23 10.99 1 14Z"/><path fill="#7D4207" d="M256 326c.17-.79.88-1.66 1-3 .31-3.61 0-7.38 0-11-.39 3.99-1 9.26-1 14Z"/><path fill="#7C5938" d="M833 330c0-.04 1 0 1 0v-17s-1-.04-1 0z"/><path fill="#865810" d="M310 363c1.44-14.85 1.01-31.42 1-47-1.43 14.77-1 31.43-1 47Z"/><path fill="#FAA821" d="M310 363v54c13.64-11.09 13.55-26.83 14-44s0-39.37 0-57h-13c.01 15.58.44 32.15-1 47Z"/><path fill="#FBBE27" d="M635 328c0-.04 1 0 1 0 .91-1.1.96-2.08 2-3 .99-.88.47-.81 2-1 8.27-3.37 19.59-.28 29-1s20.44 0 30 0c-4.97-3.67-16.71.02-23-1s-18.2.51-24 0-17.93-1.55-17 6Z"/><path fill="#FEA822" d="M811 323c1.74.52 4.23 3.36 5 5 2.92 6.23 2.88 27.84 0 34-.72 1.55-2.4 3.25-4 4-8.35 3.9-20.26.13-30 1s-22.03 0-32 0c.94 10.28.22 22.82 0 33s1.53 23.48 0 33 4.32 24.79-1 32v1c24.33-13.7 49.77-26.22 74-40 0-23.32-2-46.37-2-70-.36-3.73-1-8.59-1-13v-20c-3.4-1.72-6.07-.28-9 0Z"/><path fill="#77460A" d="M640 324c21.67-2.67 44.24 1.96 66 0v-1c-1.82-.38-4.14 0-6 0h-1c-9.56 0-20.59-.72-30 0s-20.73-2.37-29 1Z"/><path fill="#1E0800" d="M636 328c.49 5.47-1 11.62 0 17s-2.04 12.99 0 18c.86 1.43 3.6 2.48 5 3 10.3 2.28 21.42-1.2 32 0s22.32-.97 33 0c-4.18-4.33-15.91.58-22-1s-16.72 1.35-23 0-15.92 2.37-21.29-.71c-5.38-3.07-2.25-14.87-2.71-20.29s-.76-15.11 1-19c-1.04.92-1.09 1.9-2 3Z"/><path fill="#AF6511" d="M367 344c0-.04 1 0 1 0 0-5.4-.54-11.29-1-16z"/><path fill="#C6A01F" d="M636 363c-2.04-5.01 1-12.62 0-18s.49-11.53 0-17c0 0-1-.04-1 0-.5 5.48-.24 12.61 0 18s-1.6 12.71 1 17Z"/><path fill="#D0981D" d="M816 362c2.88-6.16 2.92-27.77 0-34 1.41 4.7 0 12.06 0 17s1.41 12.3 0 17Z"/><path fill="#FDC829" d="M167 335v12c0 1.29-.18 2.73 0 4 .2.68 1.08.75 1 2v1c2.51-5.5-.82-17.83-1-24-.08 1.66 0 3.34 0 5Z"/><path fill="#492009" d="M834 342v-12s-1-.04-1 0c0 4.08.67 8.6 1 12Z"/><path fill="#A28C7A" d="M153 347c-.19-4.93-.27-10.08 0-15-.78 4.82-.7 10.13 0 15Z"/><path fill="#C17213" d="M167 347v-12c-.41 3.81-.53 8.09 0 12Z"/><path fill="#F07312" d="M393 342c-3.23-.31-19.58-.26-15.23 5.23s11.98 1.04 18.23 2.77 12.54.76 19.99.99c7.46.23 3.32-8.72-3.99-6.99s-12.63-1.38-19-2Z"/><path fill="#935E0E" d="M821 356c0-4.41-.64-9.27-1-13 0 4.41.64 9.27 1 13Z"/><path fill="#773605" d="M367 385c1.24-12.81 1-27.4 1-41 0 0-1-.04-1 0z"/><path fill="#F07312" d="M626 345c-3.27-2.22-11.14 1.48-14.78.22s-10.05 3.82-5.89 6.45 10.73-1.2 14.65.31c3.91 1.5 9.63-4.53 6.02-6.98Z"/><path fill="#E76A0C" d="M457 399c0 3.97-.27 8.04 0 12-.02 5.96 3.38 10.99 3 17-12.26-8.43-11.03-29.46-25-37-1.09 13.31-1.39 33.88 9.25 42.75 10.63 8.88 19.39 15.62 28 26 8.6 10.38 25.14 11.27 35.75 18.25-11.75-8.78-22.4-22.62-29-36 10.73 4.22 18.89 13.9 30.32 16.68 11.44 2.77 21.74 12 33.46 13.54 11.71 1.54 20.09 14.04 31.22 12.78-11.11-8.71-21.95-15.12-33.25-23.75S527.59 436.49 521 425c8.05 4.44 17.48 8.35 25.77 13.23s15.5 7.75 21.98 16.02c6.49 8.27 17.31 7.81 26.02 11.98s15.02 9.27 24.21 13.79c9.18 4.53 20.04 3.13 28.94 5.06 8.91 1.92 19.02 7.76 28 10 8.99 2.23 16.27 9.82 25.08 12.92 1.71.6 3.32 1.29 5 2v-31c-9.61-7.95-23.38-14.36-34.75-21.25-11.38-6.88-21.17-16.82-33.25-21.75 10.26 23.56 36.36 36.07 53 53-24.28-9.07-52.99-20.52-65-46-2.72 2.24.23 6.17 0 9-10.37-4.48-14.97-16.14-18.01-25.99-3.03-9.85-.52-30.08-14.99-29.01.91 11.39 6.25 23.5 6 34-7.23-11.11-11.16-24.11-19.23-34.77-8.06-10.67-7.4-5.38-8.84 3.7-1.45 9.07.35 14.92 2.08 23.06 1.72 8.15 3.21 13.49 5.99 21.01-12.75-6.07-23.96-13.6-32.23-25.77S541.43 387.71 532 376c-8.96 12.43 3.87 28.79-1 41-9.78-9.32-10.03-23.61-12.02-35.98-2-12.36-15.11-19.78-14.98-33.02-10.51 2.92-24.21-6.5-22.93 5.93 1.28 12.42 2.98 20.32 5.93 31.07s1.44 20.45 7.7 29.31c6.25 8.85 5.31 17.23 11.3 25.69-9.61-.58-13.7-9.87-19.75-16.25s-15.48-10.1-16.32-19.68C469.09 394.5 457 382.09 457 399Zm172 74c-10.69-6.82-23.2-14.1-29-26 13.5 1.62 22.6 15.35 29 26Z"/><path fill="#150400" d="M256 388c3.89-3.89-.27-14.41 1-20s-.51-14.9-1-20c0 5.85 1.07 14.42 0 20s2.84 15.41 0 20Z"/><path fill="#AD630F" d="M168 353c.08-1.25-.8-1.32-1-2 .18 1.32.42 1.13 1 2Z"/><path fill="#160601" d="M749 366c20.83-1.89 42.13 1.42 63 0-8.61-.57-22.92-2.68-32-1s-23.95-4.19-31 1Z"/><path fill="#C68416" d="M705 367h1s.25-.74 0-1c-10.68-.97-22.42 1.2-33 0s-21.7 2.28-32 0c9.13 3.37 21.74.25 32 1s21.64 0 32 0Z"/><path fill="#843902" d="M748 367c-2.82 19.61.38 41.15 0 61s-1.82 41.22 0 61c0 0 .7-.24 1 0 .68-7.52 0-15.44 0-23v-1c0-32.66.02-65.34 0-98v-1c-.3.22-.78.7-1 1Z"/><path fill="#C58014" d="M749 367c.25.25 1 0 1 0 9.97 0 22.26.87 32 0s21.65 2.9 30-1c-20.87 1.42-42.17-1.89-63 0z"/><path fill="#FED52B" d="M706 465c2.87-4.68-1.21-13.27 0-19s-.53-13.85 0-20-.11-12.62 0-19 .17-13.5 0-20 .58-13.5 0-20h-1c-2.91 32.19 1.35 66.48 1 98Z"/><path fill="#260D02" d="M706 465c-1.17 1.9-12.02-5.47-14.77-7.23-2.75-1.75-11.43-6.47-14.23-8.77 7.99 8.08 18.72 13.55 29 18 1.77-7.73 1.04-16.86 1-25s.48-17.01 0-25 1.17-18.47 0-26 3.23-18.28-1-24c.58 6.5-.17 13.5 0 20s.11 13.62 0 20 .53 12.85 0 19 1.21 14.27 0 20 2.87 14.32 0 19Z"/><path fill="#180500" d="M748 489c-1.82-19.78-.38-41.15 0-61s-2.82-41.39 0-61c-4.07 5.53.08 16.74-1 24s.27 17.39 0 25-.35 17.52 0 25-1.21 18.23 0 25-3.5 18.64 1 23Z"/><path fill="#FCCC28" d="M749 465c5.32-7.21-.53-22.48 1-32s-.22-22.82 0-33 .94-22.72 0-33c0 0-.75.25-1 0 .02 32.66 0 65.34 0 98Z"/><path fill="#230D07" d="M836 401c-.42-6.59-1-13.12-1-20-2.33 7.67-.34 17.5-1 26 .77-1.05 1.94-4.85 2-6Z"/><path fill="#793001" d="M457 411c-.27-3.96 0-8.03 0-12-.37 3.84-.72 8.01 0 12Z"/><path fill="#27100B" d="M839 529c-.3-3.27 0-6.71 0-10v-12c-.23-2.42-1-5.91-1-9v-21c-.3-3.08-1-7.25-1-11v-31c-.27-2.75-1-6.58-1-10v-17c-.58 6.11-1.38 14.16-1 21s-.4 13.83.67 20.33.26 14.16.33 20.67 1 14.96 1 21-.11 16.02.22 20.78 1.89 17.15 1.78 17.22Z"/><path fill="#9C8068" d="M837 435c0-3.42-.73-7.25-1-10 0 3.42.73 7.25 1 10Z"/><path fill="#B54500" d="M749 466c0 7.56.68 15.48 0 23 6.44 6.14 19.22 7.76 22 17-7.52-2.19-14.21-6.82-22-8-.15 8.92-3.06 27.98 8.93 29.07 11.98 1.09 18.56.87 29.07 6.93-8.03-8.99-6.76-15.22-9-27s7.48-22.71 11-9c3.53 13.71-.72 18.01 8 28 .99-9.46-3.83-23.77-1-33 2.83-9.22-3.86-21.72 4.75-28.25 8.62-6.52 7.58 14.98 7.25 22.25s-1.39 25.5 2 31c5.09-11.8 1.48-16.19 5.67-29.33 4.19-13.13 9.04 4.64 7.33 14.33s-1.13 19.15-8 27c3.86-.05 7.08-2.31 11-2-1.4-33.84-3-67.83-3-102-24.23 13.78-49.67 26.3-74 40Z"/><path fill="#180500" d="M256 445c0 5.59.5 11.44 0 17 .4.27 1.9-11.24 1-15s1.78-13.81-1-17z"/><path fill="#E6650A" d="M475 503c-2.73-6.05-6.45-11.78-11-17 12.84 3.94 27.57 7.58 40 9-32.56-17.88-62.04-42.65-95-60 .27 5.95 8.16 16.59 12.3 19.7 4.15 3.1 18.6 12.24 12.38 14.96-6.23 2.72-13.73-10.61-20.46-10.88-6.72-.28-13.81-8.72-20.22-10.78 2.12 8.39 10.34 14.44 15 21-2.91.79-6.65.45-9 2 5.97 3.29 12.17 11.13 18.31 13.69 6.13 2.57 19.69 10.86 16.69.31 13.42 4.81 29.84 7.89 41 18Z"/><path fill="#EC7812" d="M168 510c.46.86 13.51-3.51 15-5 .91-1.94 1.61-3.94 2-6 2.57-.47 2.33 2.58 3 4 3.77-.58 7.06-2.91 11-3 .63-6.52-1.47-19.23 8-19 1 4.28 2.56 8.34 2 13 16.18-5.26 30.19-15.91 46-22v-10c0-5.15-.73-10.91 0-16-4.82 2.27-15.41 8.03-20.93 5.93-5.51-2.11-16.67-1.36-19.07-6.93-1.51 9.32-9.46 15.44-16.25 21.75-6.79 6.32-14.66 9.08-21.5 15.5-6.84 6.41-6.81 19.37-9.25 27.75Z"/><path fill="#7C3503" d="M255 446c-.73 5.09 0 10.85 0 16 0 0 .65-.23 1 0 .5-5.56 0-11.41 0-17-.05.23-.95.65-1 1Z"/><path fill="#401800" d="M629 473c-6.4-10.65-15.5-24.38-29-26 5.8 11.9 18.31 19.18 29 26Z"/><path fill="#6C4A32" d="M838 477c0-3.75-.7-7.92-1-11 0 3.75.7 7.92 1 11Z"/><path fill="#240E01" d="M701 508c1.72 1.01 7.35 6.36 6-2s2.29-19.47-1-27v31c-1.68-.71-3.29-1.4-5-2Z"/><path fill="#B44400" d="M475 503c5.09 6.75 9.54 12.56 17.32 16.68 7.78 4.11 16.56 5.95 23.6-.76 7.05-6.7 18.95-1.93 26 1.16s14.06 11.45 22.01 11.99 18.62 8.79 24.82-.32c6.21-9.1 16.11-2.13 23.56-3.44 7.44-1.32 14.67-9.55 19.69-13.31-16.43-.38-27.34-9.57-41.93-15.07-14.58-5.51-29.5 14.48-45.07 10.07-15.56-4.42-26.65-8.21-41-15-12.43-1.42-27.16-5.06-40-9 4.55 5.22 8.27 10.95 11 17ZM445 521c-4.32-4.3-13.09-5.96-19.31-8.69-6.21-2.74-12.95-5.7-18.61-9.39s-10.69-8.48-17.41-9.59c-6.71-1.12-14.84-8.53-22-4.66-7.15 3.87-18.36.69-25.64 2.36-7.29 1.67 5.63 8.25 9.22 11.72 3.6 3.47 13.05 8.19 18.68 9.32 5.62 1.14 12.51 6.47 17.07 9.93-4.89 1.85-11.01-.45-7 7-11.64-3.04-23.04-7.89-34.93-10.07-11.88-2.18-25.41 6.48-37.07-1.93v23c17.4.7 35.68-.94 53 0s30.52-7.13 48-5c-.21-3.46-13.2-14.83-6.23-15.77s13.09-.08 20.21 2.79c7.11 2.88 15.52 2.63 22.02-1.02Z"/><path fill="#69472E" d="M839 507c0-3.09-.77-6.58-1-9 0 3.09.77 6.58 1 9Z"/><path fill="#B04201" d="M188 503c4.05 7.58 2.39 19.87 11 24v-27c-3.94.09-7.23 2.42-11 3Z"/><path fill="#B54400" d="M255 538c-2.05-6.2 4.04-22.5-3-25s-15.25-1.58-21.93-5.07c-6.67-3.5-13.44-5.17-20.07-.93.63 9.59-1.28 19.83 1 29 6.2-2.44 5.39-23.44 13.3-20.3s.36 21.15-3.3 25.3c11.75.67 22.76-1.71 34-3Z"/><path fill="#B34401" d="M168 510c-3.46 6.79-4.92 15.09-9 22 14.27-4.58 25.34 5.46 38 9-10.22-9.41-16.28-21.67-14-36-1.49 1.49-14.54 5.86-15 5Z"/><path fill="#9F8064" d="M839 529s.98-.1 1 0c0-3.42-.73-7.25-1-10 0 3.29-.3 6.73 0 10Z"/><path fill="#B24300" d="M682 541c2.47.91 8.42.18 11 0s9.02 1.38 11 0c-.57-2.13.75-4.94 0-7-4.45-1.08-9.22-1.16-14-1 2.76-2.16 7.49-.45 11-1-.02 0 0-1 0-1-12.92-4.97-27.03-13.72-40-4 2.91 5.07 8.7 3.87 12.92 4.08s4.62 7.99 8.08 9.92Z"/><path fill="#712A02" d="M701 532c2.41.07 2.24-.08 3 2 .75 2.06-.57 4.87 0 7 1.14-.8 1.96-7.69 1-9-1.44-.83-2.48-.6-4-1 0 0-.02 1 0 1Z"/><path fill="#210D00" d="M705 532c.96 1.31.14 8.2-1 9-1.98 1.38-8.42-.18-11 0s-8.53.91-11 0c5.7 3.18 11.34-.97 18 1s7.68-8.46 5-10Z"/><path fill="#EA8D14" d="M704 534c-.76-2.08-.59-1.93-3-2-3.51.55-8.24-1.16-11 1 4.78-.16 9.55-.08 14 1Z"/><path fill="#3C241C" d="M843 636v-11c-.46-4.71-1-10.6-1-16 0-24.92-2-49.17-2-74-3.03 31.4-1.45 69.86 3 101Z"/><path fill="#452D08" d="M393 552h224c-35.98-3.48-75.1-1-112-1s-75.94-2.49-112 1Z"/><path fill="#FABD25" d="M617 552H414c-16.5 1.6-34.77.89-52 1 107.18.69 217.1.12 325-1-3.39 3.11-11.19 6.76-12 10 5.64-2.74 10.81-7.49 16-11-24.75-1.02-49.59 1-74 1Z"/><path fill="#FCA822" d="M146 567c-.05 2.65-.99 7.96 1 10 5.88 4.33 16.22 2.44 21 10 8.79 2.63 20.97-1.37 30 0s18.63-.53 26-4c-14.61-3.72-30.7-2.32-45-7 24.26-4.83 51.58-2.63 77-2v-22H148c-1.03 5.06-1.89 9.69-2 15Z"/><path fill="#FEA822" d="M307 578c2.91 4.11 13.91-.18 19 1s14.1-.5 20 0 13.79-.14 20 0 13.8.11 20 0 13.06 1.25 18-2c-9.35-6.24-26.11.29-33-9 25.59-5.43 48.14 3.72 73 5s52.52-2.31 76 5c-23.44 6.7-51.62 1.87-76 5 6.81 2.12 15.21 1.56 22 5-12.48 5.86-26.91 4.17-41 6s-31.01.35-45 0c-14-.35-32.56-4.83-43 3 33.62 14.57 74.47 4.69 109 14-3.25 1.63-6.54 3-10 4 7.71 2.77 17.13 2.17 25 5 8.74-.85 17.2-2 26-2 9.21-1.11 19.54-4.26 29-6 .03-4.81-8.03-3.17-8-8 20.02-7.65 41.78-1.22 63-2 8.42-.32 17.52-2.5 25-6-5.48-7.49-8.4-5.27-18.22-8.78s.82-7.76 9.22-7.22 15.84-3.4 24-4c-5.23-6.82-16.01-4.44-24.67-6.33s-20.64.83-29.33-1.67c17.07-5.15 35.87-3.38 55-4s40.66.46 60 0c1.27-.71 1.85-1.17 3-2 .81-3.24 8.61-6.89 12-10-107.9 1.12-217.82 1.69-325 1 17.23-.11 35.5.6 52-1h-21c-13.37 0-24.4.63-38 0s-22.38 1.76-37 0c-14.62-1.75-11 14.01-11 26Z"/><path fill="#EB6E10" d="M596 596c8.31-3.88 15.27-10.24 24.78-11.22 9.5-.99 15.45-8.49 24.15-11.85 8.69-3.37 18.95-4.41 27.07-8.93-19.34.46-40.87-.62-60 0s-37.93-1.15-55 4c8.69 2.5 20.67-.22 29.33 1.67s19.44-.49 24.67 6.33c-8.16.6-15.6 4.54-24 4s-19.04 3.71-9.22 7.22 12.74 1.29 18.22 8.78Z"/><path fill="#875A10" d="M147 577c-1.99-2.04-1.05-7.35-1-10-.38 3.17-2.66 7.31 1 10Z"/><path fill="#190800" d="M257 570c.41 4.58 0 9.4 0 14v30c1.67-14.52 1.66-32.4 0-47-.13.98.16 2.03 0 3Z"/><path fill="#ED6F10" d="M307 578v33c4.32-2.01 9.03-2.36 14-2 .06-2.39 2.67-4.86 5-5 1.69 2.04.29 4.97 2 7 3.17.03 4.26-3.91 7-5 .39 3.36 1.51 6.43 1 10 20.23 1.74 40.58-2.09 60.99 2.01 20.42 4.1 43.49 3.98 64.01 1.99-7.87-2.83-17.29-2.23-25-5 3.46-1 6.75-2.37 10-4-34.53-9.31-75.38.57-109-14 10.44-7.83 29-3.35 43-3 13.99.35 30.91 1.83 45 0s28.52-.14 41-6c-6.79-3.44-15.19-2.88-22-5 24.38-3.13 52.56 1.7 76-5-23.48-7.31-51.14-3.72-76-5s-47.41-10.43-73-5c6.89 9.29 23.65 2.76 33 9-4.94 3.25-11.8 1.89-18 2s-13.79.14-20 0-14.1.5-20 0-14.91 1.18-20 0-16.09 3.11-19-1Z"/><path fill="#783405" d="M256 574c0 3.43.74 7.31 1 10 0-4.6.41-9.42 0-14 0 0-.87-.22-1 0z"/><path fill="#B74501" d="M801 579c-9.44-.69-22.65-9.53-32.93-6.93-10.27 2.61-21.66 3.72-31.07 7.93 20.49 3.99 43.74 2.56 64-1Z"/><path fill="#EC6F10" d="M168 587c1.7 8.3 4.07 13.89 1 23s-.58 12.12 7.98 11.02c8.55-1.09 14.47 6.48 22.8 2.76 8.33-3.73 13.3-2.59 22.22-2.78-2.67-5.21-6.92-11.12-5-17 4.63.54 5.36 6.07 8 9 1.89-2.63 1.82-6.81 3-10 7.85-.27 3.22 10.22 6 14 .81-2.86 1.98-7.75 6-7-.38 3.3.9 7.1-1 10 2.65-.72 6.22-1.48 8.31-3.69 2.08-2.22 7.99-.84 9.69-2.31v-30c-.26-2.69-1-6.57-1-10-25.42-.63-52.74-2.83-77 2 14.3 4.68 30.39 3.28 45 7-7.37 3.47-16.97 5.37-26 4s-21.21 2.63-30 0Z"/><path fill="#B54501" d="M734 603c-25.65-6.41-54.46-13.08-78 3 6.17 4.59 17.57.74 26 1s18.84 2.42 26.99-.01c8.15-2.42 18.9-.22 25.01-3.99Z"/><path fill="#EB6F10" d="M487 618c14.57 0 32.35 1.82 44.77-5.23S557.66 604.86 571 602c-21.22.78-42.98-5.65-63 2-.03 4.83 8.03 3.19 8 8-9.46 1.74-19.79 4.89-29 6Z"/><path fill="#8F735E" d="M843 625c0-5.4-.54-11.29-1-16 0 5.4.54 11.29 1 16Z"/><path fill="#B54501" d="M778 648c-1.19-7.78 8.55-21.25-1-25-2.36 6.12-4.17 12.45-5 19-4.13-2.7-3.53-8.6-7-12-2.76 4.87.11 11.56 0 17-3.85-4.23-13.44-4.36-8.75.75s6.7 7.22 12.08 9.92 13.32-1.94 15.92-5.42 10.18-9.82 6.43-12.91c-3.75-3.1-8.71 9.76-12.68 8.66Z"/><path fill="#736858" d="M337 644c4.47-2.21 11.79.66 17 0s12.56-.25 18 0 12.71-1.33 18 0c-6.36-2.59-19.77-1.44-27-1s-20.51-2.96-26 1Z"/><path fill="#716656" d="M428 644c12.44-3.13 27.04.94 40 0s27.91-.5 41 0c-11.92-1.7-28.39-2.02-41-1s-28.8-3.56-40 1Z"/><path fill="#726858" d="M585 644c6.61-3.17 17.53 1.23 25 0s17.24.11 25 0 17.33-.94 25 0 17.85-2.6 25 0c-6.36-3.51-17.33-.23-25-1s-17.21-.11-25 0-18.55-.96-26 0-18.29-3.06-24 1Z"/><path fill="#F5DFBA" d="M339 770c6.88 1.89 17.85.19 25 0s18.38 2.41 25 0c8.88-4.9-4.49-10.22-6-15-4.21-13.33-1.03-33.49-1-48s-3.29-34.77 1-48c1.69-5.2 17.75-10.63 7-15-5.29-1.33-12.56.25-18 0s-12.79-.66-18 0-12.53-2.21-17 0c-8.47 6.11 10.83 10.11 8 19s1.22 20.82 0 30 .54 22.18 0 31 .21 22.45-.07 29.93c-.28 7.47-18.15 10.73-5.93 16.07Z"/><path fill="#F5DEB9" d="M435 730c.66 6.87 2.15 16.19 0 23-2.04 6.45-3.56 4.18-8.75 8.25-5.2 4.06-1.32 7.79 3.75 8.75 26.68 2.04 56.3 1.82 83 0 18.93-.03 37.14-8.81 41-29s-13.07-35.91-31-39c16.11-2.27 28.98-18.52 23.92-34.92-5.05-16.41-22.38-22.49-37.92-23.08-13.09-.5-28.04-.94-41 0s-27.56-3.13-40 0c-12.67 5.15 8.51 9.9 7 19s.59 23.96 0 34 0 22.72 0 33Zm59-66c21.15.81 20.67 25.56 2 31-5.08 1.48-17.17 2.66-22 0-.42-.23-1.73-.72-2-1-2.51-2.57-.99-11.27-1-15s-1.77-13.14 2-15c2.14-1.06 7.56 0 10 0 3.56-.34 7.46-.51 11 0Zm1 86c-2.64.18-5.36 0-8 0-3.68.36-7.22 1.24-11 0-2.61-.86-1.66.29-3-2-2.06-3.5-1.14-10.66-1-15s-1.43-11.73 1-15c3.27-4.4 22.58-2.72 28-2 9.35 1.25 17.28 10.1 15 20s-12.14 13.4-21 14Z"/><path fill="#F5DFBA" d="M592 663c2.42 13.52 1.7 30.66 1 45s3.16 32.85-1 46c-1.66 5.26-17.58 11.29-6 16 7.28 1.83 17.46 0 25 0s17.72 1.83 25 0c11.37-4.63-.14-7.6-4.69-12.31-4.55-4.7 1.53-17.29-1.31-24.69-2.83-7.4 3.08-18.33 12-14s16.02-4.66 21.7 4.3c5.67 8.97 11.61 1.06 9.3-7.3s3.45-18.5-.08-25.92c-3.54-7.41-10.75 5.3-16.7 5.14-5.95-.15-17.21 2.86-24.22 1.78-.9-.14-2.29-.32-3-1-3.43-3.27-.2-14.27-1-19s-1.72-15.19 5.01-14.99 13.28-.17 19.99-.01c-2.1 2.08-6.15.5-9 1 .04 0 0 1 0 1 12.92 0 29.88.09 37.25 10.75 7.36 10.67 8.5-8.12 7.75-11.75s1.51-15.96-4-19c-7.15-2.6-17.33.94-25 0s-17.24-.11-25 0-17.53-1.23-25 0-18.39-3.17-25 0c-5.47 3.9 6.6 13.16 7 19Z"/><path fill="#B54501" d="M247 663c-9.86-8.89-26.04-2.85-37.93-8.07-11.88-5.23-26.55 1.27-37.07 5.07 11.25 3.82 25.09.89 36.98 4.02 11.88 3.14 25.95-1 38.02-1.02Z"/><path fill="#473630" d="M844 671v-18c-.54 5.6-.55 12.33 0 18Z"/><path fill="#DBD3C3" d="M383 755c-2.67-14.88-.04-32.85 0-48s-2.76-33.15 0-48c-4.29 13.23-.97 33.49-1 48s-3.21 34.67 1 48Z"/><path fill="#FAF6E3" d="M629 696c-1.85-2.86.4-13.73 0-17s-1.53-15.24 2-16c4.25-.39 8.73 0 13 0 2.85-.5 6.9 1.08 9-1-6.71-.16-13.26.21-19.99.01S627.2 672.27 628 677s-2.43 15.73 1 19Z"/><path fill="#98744F" d="M483 664c3.66 0 7.34-.14 11 0-3.54-.51-7.44-.34-11 0Z"/><path fill="#B4926A" d="M592 754c4.16-13.15.3-31.66 1-46s1.42-31.48-1-45c1.01 14.81.55 31.24 0 46s2.59 30.57 0 45Z"/><path fill="#AD8C67" d="M629 696c.71.68 2.1.86 3 1-3.85-1.93-2.02-11.8-2-16s-1.45-13.69 1-17c.24-.32 0-1 0-1-3.53.76-2.4 12.73-2 16s-1.85 14.14 0 17Z"/><path fill="#744A2A" d="M631 664c4.25.38 8.73 0 13 0 0 0 .04-1 0-1-4.27 0-8.75-.39-13 0 0 0 .24.68 0 1Z"/><path fill="#C2B5A4" d="M472 694c-1.39-3.03-.03-11.76 0-15s-1.71-13.08 1-15c-3.77 1.86-2.01 11.27-2 15s-1.51 12.43 1 15Z"/><path fill="#3E1801" d="M471.999 694c.27.28 1.58.77 2 1 5.87 1.25 16.06.94 22 0 18.67-5.44 19.15-30.19-2-31-3.66-.14-7.34 0-11 0-2.44 0-7.86-1.06-10 0-2.71 1.92-.97 11.76-1 15s-1.39 11.97 0 15Z"/><path fill="#967B64" d="M844 671c0 4.14.52 8.51 1 12 0-4.41-.64-9.27-1-13z"/><path fill="#54433C" d="M845 697v-10c-.44 3.22-.31 6.77 0 10Z"/><path fill="#B44501" d="M313 696c-14.86-1.83-31.69-9.12-46-1 14.09 2.68 32.31 7.1 46 1Z"/><path fill="#BEB4A4" d="M496 695c-5.94.94-16.13 1.25-22 0 4.83 2.66 16.92 1.48 22 0Z"/><path fill="#B74602" d="M761 713c2.47-4.32 1.41-11.7-4-14-3.21 5.13 2.06 9.62 4 14Z"/><path fill="#B84602" d="M772 711c.48-3.88 4.95-8.37 2-12-3.34 2-6.41 10.44-2 12Z"/><path fill="#210701" d="M473 718c-1.69 3.31.13 11.17 0 15s-1.35 11.42 0 15c1.34 2.29.39 1.14 3 2 3.42.61 7.52 0 11 0 2.64 0 5.36.18 8 0-6.15-.18-14.11-1.95-21-1v-31c8.79-1.14 18.79-.16 27-2-5.42-.72-24.73-2.4-28 2Z"/><path fill="#401901" d="M495 750c8.86-.6 18.72-4.1 21-14s-5.65-18.75-15-20c-8.21 1.84-18.21.86-27 2v31c6.89-.95 14.85.82 21 1Z"/><path fill="#735234" d="M473 748c-1.35-3.58-.13-11.17 0-15s-1.69-11.69 0-15c-2.43 3.27-.86 10.66-1 15s-1.06 11.5 1 15Z"/><path fill="#574541" d="M846 734c0-5 .1-10 0-15-.35 4.59-.45 10.32 0 15Z"/><path fill="#9E866B" d="M435 753c2.15-6.81.66-16.13 0-23 0 7.27 1.28 15.86 0 23Z"/><path fill="#6C584E" d="M847 770c-.85-8.83-.2-18.76-1-27 0 9.01.2 18.69 1 27Z"/><path fill="#9E7952" d="M487 750c-3.48 0-7.58.61-11 0 3.78 1.24 7.32.36 11 0Z"/><path fill="#F3DEB9" d="M506 814c1.31 1.22-2.08 10.61-1 15s-.33 12.76 0 18 .19 12.42 0 18 .85 12.37 0 18 1.93 13.66 0 19c40.57-34.89 85.52-44 139-44 10.37-1 22.7-1 33 0 33.86.25 66.89 3.82 100 7-5.6-8.15-9.16-17.33-14.25-25.75-5.08-8.43-9.37-16.19-14-25-4.62-8.81-10.1-16.28-14.45-25.55-4.35-9.28-9.52-15.03-13.99-25-4.48-9.98-21.63-6.7-32.31-6.7-3.1 0-6.64-.77-9-1h-33c11.04 17.59-4.82 25.99-20 25s-32.11 2.89-45.98 5.02c-13.86 2.14-28.7 5.2-40.79 10.21-12.09 5-24.4 8.55-33.23 17.77Zm196-25c3.35 2.35 1.64 3.67-1 5-8.72 4.38-21.89.22-32 2s-22.7.75-33.02 1.98c-10.33 1.22-23.09.06-32.98 2.02s-21.61 1.36-30.67 4.33-19.28 2.15-27.01 6.99-21.86 7.16-13.09-.09 15.32-6.56 24.84-10.16c9.53-3.59 18.99-4.32 29-6 10.02-1.67 21.66-2.72 31.93-3.07 2.3-.08 4.7-.13 7 0 2.09-.2 5.24-1 8-1 3.66 0 7.35-.15 11 0 3.4-.33 7.92-1 12-1 11.34 0 22.44-1 34-1 3.4-.33 8.61-2.38 12 0Zm14 23c.84 2.93-1.23 3.15-3 4-3.96 1.91-10.25 1-15 1-12.82 0-26.55.22-39 1s-26.35 1.59-38.22 2.78-26.82 1.09-37.45 3.55-24.45 3.48-33.01 7.99-25.87 8.99-17.09.91 19.25-7.24 29.84-11.16c10.6-3.92 23.39-4.23 34.93-6.07s25.95-3 38-3c3.41-.33 7.92-1 12-1 11.91 0 23.07-1 35-1 3.78-.37 12.88-2.1 17-1s14.65-2.73 16 2Zm10 24c-4.55 3.2-17.14 1-23 1-3.08.3-7.25 1-11 1h-26c-2.42.23-5.91 1-9 1-10.63 0-20.63 1.16-31.02 1.98-10.4.81-20.79 1.32-30.98 3.02s-18.15 1.65-28.22 4.78c-10.08 3.13-15.97 2.25-26.46 7.54-10.48 5.29-9.59-3.21.76-6.24 10.34-3.04 15.84-6.36 25.94-8.06 10.11-1.69 17.93-3.67 28.05-4.95 10.13-1.28 20.55-2.52 30.93-3.07s21.52-2 32-2h13c3.4-.33 7.92-1 12-1h18c6.33-.61 14.99-2.19 22-1 3.8.64 6.71 2.83 3 6Z"/><path fill="#7A5A3B" d="M688 757c-2.36-.23-5.9-1-9-1 2.36.23 5.9 1 9 1Z"/><path fill="#866747" d="M280 760c2.81-2.05 12.02-1.71 15-2-4.84 0-11.65-1.42-15 2Z"/><path fill="#F3DEB9" d="M280 760c-17.79 35.49-39.72 69.24-57 105 24.56-2.46 48.85-6 74-6 2.42-.23 5.9-1 9-1h13c13.66-1.32 30.42-1.85 44 0h4c4.08 0 8.66.68 12 1 38.53 0 78.64 11.91 108 37 3.01 2.57 5.92 5.61 9 8 .17-16.41-.23-37 0-53s3.63-34.64-10.75-42.25c-14.39-7.6-21.21-12.01-36.23-15.77-15.01-3.77-29.24-6.76-44.8-8.2S371.21 778.96 355 781s-34.57-3.52-25-23h-35c-2.98.29-12.19-.05-15 2Zm56 30c2.77 0 5.96.8 8 1 20.71-.82 41.98 1.14 62 4 11.32 1.62 25.56 3.35 36.07 6.93 10.52 3.58 24.49 4.79 27.93 16.07-50.55-21.99-108.99-18.77-164-23-2.62.05-5.39.22-8 0-1.74-.15-1.77-.33-3-1-8.74-4.79 7.78-6.15 14-5s20.03 1 27 1Zm-17 21h9c4.08 0 8.66.68 12 1 12.09 0 25.33 1.2 37 2s24.24 1.8 35.07 3.93c10.84 2.13 22.6 2.74 32.15 6.85 9.56 4.11 22.87 4.26 24.78 15.22-8.19-2.01-14.81-5.32-23.02-7.98-8.22-2.65-16.14-4.47-24.98-6.02-8.85-1.54-18.69-3.32-28-4-9.32-.68-18.81-2.14-28.22-2.78-9.41-.63-21.47-1.03-30.78-1.22s-21.43-.85-30-1-25.68 3.26-22-6c4.54-3.19 12.29-.01 18-1s13.94.51 19 1Zm-28 19c6.47.63 13.73 1.69 21 1s14.77 1.29 22 1 14.06.31 21 1 15.17.38 22 1 14.1 1.78 20.67 2.33 13.26 1.91 19.33 2.67c6.08.75 13.78 2.52 19.02 3.98 5.24 1.45 13.23 3 17 5 3.78 1.99 14.91 4.01 13.62 8.72s-11.61-1.48-15.66-2.67c-4.06-1.2-11.54-4.11-17-5.01-5.47-.9-12.99-2.89-19.05-3.95-6.07-1.05-13.46-.96-19.93-2.07s-14.22-1.22-21-2-14.58-.4-21.22-1.78c-6.64-1.37-15.35 1.28-21.78-.22s-15.74-.55-22-1-15.56-1.86-21-1-18.93.51-17.66-4.68 17.09-2.66 20.66-2.32Z"/><path fill="#7F725C" d="M389 770c-6.62 2.41-17.85-.19-25 0s-18.12 1.89-25 0c6.15 2.69 17.82 1.22 25 1s19.04 2.29 25-1Z"/><path fill="#796953" d="M513 770c-26.7 1.82-56.32 2.04-83 0 12.68 2.4 28.48.93 42 1s28.32 1.27 41-1Z"/><path fill="#7A6A54" d="M636 770c-7.28 1.83-17.46 0-25 0s-17.72 1.83-25 0c6.56 2.67 17.42 1.01 25 1s18.38 1.69 25-1Z"/><path fill="#AB907A" d="M848 782c0-4.08-.67-8.6-1-12 .4 4.13.21 8.42 1 12Z"/><path fill="#CD5809" d="M261 774c-8.39 6.08-11.83 17.5-17.75 26.25-5.91 8.76-11.14 18.38-16.48 27.52s-10.81 17.7-16 27-11.83 17.79-16.47 27.53c-4.63 9.75-12.06 16.57-16 27s-13.74 15.83-16.37 27.63c-2.64 11.79 18.23 11.99 29.4 10.4s29.98.04 42.67-1.33 28.61.61 42-1 30.08.72 44 0 28.15.5 42-1 29.97 1.93 43.78-.22 28.24 1.08 42.22-.78c13.98-1.85 22.3 6.07 34.33 9.67 12.02 3.6 25.85 3.82 37.65-.69 11.79-4.52 20.98-10.8 35.02-8.98s28.86-1 43 0 28.62 1.34 43 1 27.86.66 42 1 29.27-.67 43 1 29.51-1.65 43 0 30.02-.51 43 1 30.49-.71 23.77-12.77c-6.72-12.07-10.1-17.48-16-28s-10.27-17.41-15.85-27.15c-5.59-9.74-10.61-18.5-16.17-27.83-5.55-9.34-10.77-17.79-15.98-27.02s-10.58-18.95-16.46-27.53c-5.89-8.59-8.93-21.24-18.31-24.7 30.22 55.88 63.54 110.5 92 167-12.45-.44-25.63.59-38 0s-24.45-1.32-37-1-24.37-1.76-37-1-24.73-.41-37-1-25.65-.07-38 0-24.87-1.07-37-1-26.28-.49-38 0-25.31-2.58-34.92 3.08-17.69 9.58-29.08 8.92-21.76.02-31.3-6.7c-9.55-6.72-20.56-5.49-32.7-5.3s-25.62-.04-38 0-24.54.93-37 1-25.59-.44-38 0-24.23 1.85-37 1-24.27 1.18-37 1-24.04.92-37 1-23.57.13-37 1-2.55-12.73 1.7-20.3c4.24-7.58 9.31-16.51 13.53-24.47s9.45-16.11 13.85-24.15c4.4-8.03 9.15-16.3 13.62-24.38 4.47-8.09 9.06-16.43 13.38-24.62 4.32-8.18 9.25-16.26 13.62-24.38 4.36-8.13 8.74-15.7 13.3-23.7Z"/><path fill="#5A4A43" d="M848 804c-.6-6.2 0-12.77 0-19-1.31 5.98-.58 13.02 0 19Z"/><path fill="#271008" d="M295 794c.54.45-1.51-2.88-1-4 14.06-1.27 28.72 3.07 42 0-6.97 0-20.78.15-27-1s-22.74.21-14 5Z"/><path fill="#744E29" d="M690 789c3.01 0 9.32-1.24 12 0-3.39-2.38-8.6-.33-12 0Z"/><path fill="#2A1108" d="M656 790c14.76 1.43 30.44-.4 46 0 1.64 2.25-2.88 3-1 4 2.64-1.33 4.35-2.65 1-5-2.68-1.24-8.99 0-12 0-11.56 0-22.66 1-34 1Z"/><path fill="#401C07" d="M295 794c1.23.67 1.26.85 3 1 4.19-.21 10.08-1.92 15-1-1.45 1.96-4.8.56-7 1 55.01 4.23 113.45 1.01 164 23-3.44-11.28-17.41-12.49-27.93-16.07-10.51-3.58-24.75-5.31-36.07-6.93-21.64.92-45.1-4.15-68-3 1.14-1.87 4.13-.61 6-1-2.04-.2-5.23-1-8-1-13.28 3.07-27.94-1.27-42 0-.51 1.12 1.54 4.45 1 4Z"/><path fill="#3F1C07" d="M644 791c2 .08 4-.06 6 0-4.59 1.62-12.48 1.7-17 0-2.76 0-5.91.8-8 1 1.66.09 3.34-.07 5 0-2.94 1.57-9.13 1.71-12 0-10.27.35-21.91 1.4-31.93 3.07-10.01 1.68-19.47 2.41-29 6-9.52 3.6-16.07 2.91-24.84 10.16s5.36 4.93 13.09.09 17.95-4.02 27.01-6.99 20.78-2.37 30.67-4.33 22.65-.8 32.98-2.02c10.32-1.23 22.91-.2 33.02-1.98s23.28 2.38 32-2c-1.88-1 2.64-1.75 1-4-15.56-.4-31.24 1.43-46 0-4.08 0-8.6.67-12 1Z"/><path fill="#280A03" d="M406 795c-20.02-2.86-41.29-4.82-62-4-1.87.39-4.86-.87-6 1 22.9-1.15 46.36 3.92 68 3Z"/><path fill="#140102" d="M644 791c-3.65-.15-7.34 0-11 0 4.52 1.7 12.41 1.62 17 0-2-.06-4 .08-6 0Z"/><path fill="#170100" d="M625 792c-2.3-.13-4.7-.08-7 0 2.87 1.71 9.06 1.57 12 0-1.66-.07-3.34.09-5 0Z"/><path fill="#1E0A06" d="M298 795c2.61.22 5.38.05 8 0 2.2-.44 5.55.96 7-1-4.92-.92-10.81.79-15 1Z"/><path fill="#8A7668" d="M847 824c-.34.7-1.46 2.59-2 3 7.21-4.09 3.59-16.9 3-23 .53 5.51 1.37 15.1-1 20Z"/><path fill="#938069" d="M282 811c4.89-2.27 12.44.79 18 0s13.25 0 19 0c-5.06-.49-13.29-1.99-19-1s-13.46-2.19-18 1Z"/><path fill="#988773" d="M683 811c4.26 0 13.21-.69 17 0s14.28-2.31 16 1c-1.35-4.73-11.88-.9-16-2s-13.22.63-17 1Z"/><path fill="#3F1C07" d="M340 812c-4.08 0-8.66-.68-12-1h-9c-5.75 0-13.44-.79-19 0s-13.11-2.27-18 0c-3.68 9.26 13.43 5.85 22 6s20.69.81 30 1 21.37.59 30.78 1.22c9.41.64 18.9 2.1 28.22 2.78 9.31.68 19.15 2.46 28 4 8.84 1.55 16.76 3.37 24.98 6.02 8.21 2.66 14.83 5.97 23.02 7.98-1.91-10.96-15.22-11.11-24.78-15.22-9.55-4.11-21.31-4.72-32.15-6.85-10.83-2.13-23.4-3.13-35.07-3.93s-24.91-2-37-2Z"/><path fill="#89745F" d="M340 812c-3.34-.32-7.92-1-12-1 3.34.32 7.92 1 12 1Z"/><path fill="#3E1B06" d="M648 812c-3.41.33-7.92 1-12 1-12.05 0-26.46 1.16-38 3s-24.33 2.15-34.93 6.07c-10.59 3.92-21.06 3.08-29.84 11.16s8.53 3.6 17.09-.91 22.38-5.53 33.01-7.99 25.58-2.36 37.45-3.55 25.77-2 38.22-2.78 26.18-1 39-1c3.54-.34 11.2.19 15-1 1.77-.85 3.84-1.07 3-4-1.72-3.31-12.21-.31-16-1s-12.74 0-17 0c-11.93 0-23.09 1-35 1Z"/><path fill="#897663" d="M636 813c4.08 0 8.59-.67 12-1-4.08 0-8.59.67-12 1Z"/><path fill="#AB8352" d="M503 816c-1.86 5.76.65 12.84 0 19s0 13.71 0 20c0-.04 1 0 1 0 0-6.19-.84-15.08 0-21s-2.71-15.4 1-20c-1.08.16-1.52 1.16-2 2Z"/><path fill="#FBF5DE" d="M504 855c0 7.18.89 17.09 0 24s2.85 17.77-1 23v1c.65 1.93 1.45-.53 2-1 1.93-5.34-.85-13.37 0-19s-.19-12.42 0-18 .33-12.76 0-18 1.08-13.61 0-18 2.31-13.78 1-15c0 0-.51-.07-1 0-3.71 4.6-.16 14.08-1 20s0 14.81 0 21Z"/><path fill="#1A0906" d="M503 903v-48c0-6.29-.65-13.84 0-20s-1.86-13.24 0-19c-3.12 5.45-.39 15.38-1 22s-.16 15.44 0 22-1.03 16.01 0 22-3.07 17.09 1 21Z"/><path fill="#644427" d="M698 817c4.75 0 11.04.91 15-1-3.8 1.19-11.46.66-15 1Z"/><path fill="#1D0501" d="M786 828c18.35-1.65 37.81 2.79 56 0 1.2-.18 2-.25 3-1 .54-.41 1.66-2.3 2-3-3.72 5.82-13.23 1.84-19 3s-16.32-1.36-22 0-16.1-3.03-20 1Z"/><path fill="#947F68" d="M786 829c.03.35.83.73 1 1 16.53-4.95 38.6 3.55 55-2-18.19 2.79-37.65-1.65-56 0 0 0-.05.5 0 1Z"/><path fill="#2C130B" d="M685 956h20c5.72 0 12.03.52 17 1h38c4.41 0 9.34.65 13 1h40c5.95 0 12.06.4 18 0 25.58-1.74 18.74-26.37 8.25-40.25-10.48-13.88-16.92-29.29-26.33-43.67-9.4-14.39-16.7-29.55-25.92-44.08-.17-.27-.97-.65-1-1-2.54 3.57 7.84 13.01 9.7 18.31 1.85 5.29 7.99 13.25 11 18.99 3 5.75 7.76 12.92 11.05 18.95 3.28 6.04 8.05 12.44 11.48 18.52 3.43 6.09 7.98 12.78 11 19s10.28 13.57 7.7 21.16c-2.58 7.58-8.34 12.52-16.93 13.07s-20.73-.17-30 0-19.39-1.22-29-1-20.37.25-30 0-19.29-1.12-29-1-19.07.14-28 1Z"/><path fill="#3C1907" d="M291 830c-3.57-.34-19.39-2.87-20.66 2.32s12.22 5.54 17.66 4.68 14.74.55 21 1 15.57-.5 22 1 15.14-1.15 21.78.22c6.64 1.38 14.44 1 21.22 1.78s14.53.89 21 2 13.86 1.02 19.93 2.07c6.06 1.06 13.58 3.05 19.05 3.95 5.46.9 12.94 3.81 17 5.01 4.05 1.19 14.37 7.38 15.66 2.67s-9.84-6.73-13.62-8.72c-3.77-2-11.76-3.55-17-5-5.24-1.46-12.94-3.23-19.02-3.98-6.07-.76-12.76-2.12-19.33-2.67S383.83 834.62 377 834s-15.06-.31-22-1-13.77-1.29-21-1-14.73-1.69-22-1-14.53-.37-21-1Z"/><path fill="#7E5632" d="M701 831c6.88 0 16.04-1.44 22-1-7.01-1.19-15.67.39-22 1Z"/><path fill="#210804" d="M701 831h-18c-3.4.33-7.92 1-12 1h-13c22.33 2.16 46.31-1.79 69 1-.84 2.37-6.36 2.69-1 3 3.71-3.17.8-5.36-3-6-5.96-.44-15.12 1-22 1Z"/><path fill="#643E21" d="M671 832c4.08 0 8.6-.67 12-1-4.08 0-8.6.67-12 1Z"/><path fill="#3D1A06" d="M657 839c2.42-.23 5.91-1 9-1h26c3.08-.3 7.25-1 11-1 5.86 0 18.45 2.2 23-1-5.36-.31.16-.63 1-3-22.69-2.79-46.67 1.16-69-1-10.48 0-21.62 1.45-32 2s-20.8 1.79-30.93 3.07c-10.12 1.28-17.94 3.26-28.05 4.95-10.1 1.7-15.6 5.02-25.94 8.06-10.35 3.03-11.24 11.53-.76 6.24 10.49-5.29 16.38-4.41 26.46-7.54 10.07-3.13 18.03-3.08 28.22-4.78s20.58-2.21 30.98-3.02c10.39-.82 20.39-1.98 31.02-1.98Z"/><path fill="#B38E68" d="M692 838c3.75 0 7.92-.7 11-1-3.75 0-7.92.7-11 1Z"/><path fill="#7B5634" d="M657 839c3.09 0 6.58-.77 9-1-3.09 0-6.58.77-9 1Z"/><path fill="#EDCE9A" d="M503 902c3.85-5.23.11-16.09 1-23s0-16.82 0-24c0 0-1-.04-1 0z"/><path fill="#8D7764" d="M319 858h44c-13.58-1.85-30.34-1.32-44 0Z"/><path fill="#9A836A" d="M644 858h33c-10.3-1-22.63-1-33 0Z"/><path fill="#705F52" d="M297 859c3.1 0 6.58-.77 9-1-3.1 0-6.58.77-9 1Z"/><path fill="#745E4B" d="M379 859c-3.34-.32-7.92-1-12-1 3.43.47 7.85 1 12 1Z"/><path fill="#1E0601" d="M629 866h10c-4.85-1.69-13.08-1.62-18 0z"/><path fill="#F3DDB9" d="M210 891c2.43-1.74 6.82-1 10-1 25.69 0 51-4 77-4 3.08-.3 7.25-1 11-1h12c6.02-.58 13.29-1 20-1h24c3.42 0 7.32.74 10 1 26.24.64 53.59 3.14 75 18-23.29-7.56-47.72-13-73-13-15.42 0-31.66-1.48-47 0-2.42.23-5.91 1-9 1h-16c-7.51 0-14.39 1-22 1-2.75.27-6.58 1-10 1-9.76-.05-19.31 1.96-29 2s-18.22 2.43-28 2-13.43 3.96-17 13c18.57-1.16 37.49-1.74 56-3 5.31-.36 10.69.27 16 0-1.05 1.43-3.1 2.23-5 2-14.08 1.66-30.13 3.38-44 5-13.86 1.62-29.83-1.56-34 15 11.92.1 23.07-1 35-1 2.42-.23 5.91-1 9-1 27.67 0 55.7-4.36 83-7 10-.97 19.82-1.1 30-2-.64-.06-3.48-1.28-4-2 21.85-.89 43.85-1.28 66-1-.26 1.39-2.05.78-3 1-.08.01 0 1 0 1 11.39 0 24.08 2.23 35 3 10.93.77 18.55 8.01 29 9 3.7-.34 7.06-5.9 10-8 2.58-1.84 14.36-5.61 15-8-.93-6.09-9.05-8.72-12.75-13.25-3.71-4.53-9.94-6.66-15.02-9.98s-11.19-6.34-17.16-8.84c-5.96-2.51-12.35-4.24-19-6-6.64-1.76-13.87-3.87-21.07-4.93s-14.69-2.04-22.33-2.67-15.68-.78-23.67-1.33-17.83.51-26 0-16.15.39-24 1-17.47-.18-25 1-16.81.21-23.93 1.07c-7.11.86-17.11 1.98-23.4 2.6s-18.09.7-21.36 3.64c-3.28 2.93-8.23 15.12-7.31 15.69Z"/><path fill="#F2DDB8" d="M507 914c8.55-1.31 19.07 9.73 23 16 15.73-5.58 31.61-11.82 49-12-.31-.06-1.89-1.46-2-2 24.43-1.9 49.51-.86 74 0-.24 1.67-2.85.17-3 2 24.85 1.97 49.31 4.04 74 6 30.21 2.19 60.32 4.71 91 5-7.18-18.2-27.62-12.85-45-15s-37.1-3.03-55-5-38.1-1.44-56-4c-1.77-.25-4.5.52-5-2 14.17.67 29.66-1.33 43 1h7c5.39 0 11.36.55 16 1h8c3.43 0 7.31.74 10 1 22.08.02 43.5 2.7 65 5-.29-4.78-3.89-8.44-5-13-20.31-2.12-40.7-3.9-61-6 18.26-2.62 38.34.35 57 1-3.96-5.66-6.74-18.44-14-20-12.35 1.56-26.66-2.02-39-3-33.1-2.63-66.11-4-100-4h-10c-9.17.89-21.61 2.04-30.99 3.01s-19.62 3.47-28 6c-8.39 2.52-18.04 4.86-24.93 9.07-6.9 4.21-16.85 7.09-21.83 12.17-4.99 5.07-16.57 10.47-16.25 17.75Zm196-26c1.33.03 2.67-.06 4 0 11.61.53-4.97 3-9 3h-57c-32.2 0-63.6 1.38-93 12 20.97-15.78 49.05-16.45 75-18 27.13 0 53.58 2.49 80 3Z"/><path fill="#280B03" d="M739 870c12.34.98 26.65 4.56 39 3 .95-.22 2.74.39 3-1-14.12-.9-28.51-2.79-42-2Z"/><path fill="#6D492A" d="M320 885c6.71 0 13.98-.42 20-1-6.71 0-13.98.42-20 1Z"/><path fill="#78522C" d="M374 885c-2.68-.26-6.58-1-10-1 2.68.26 6.58 1 10 1Z"/><path fill="#7E5C3A" d="M297 886c3.75 0 7.93-.7 11-1-3.75 0-7.92.7-11 1Z"/><path fill="#401E0B" d="M641 891c18.11-1.75 38.14-1 57-1h13c-.47-1.97-3.6.11-4-2-1.33-.06-2.67.03-4 0-12.35 1.68-25.86-.48-39-1s-28.31-.77-41-2c-25.95 1.55-54.03 2.22-75 18 29.4-10.62 60.8-12 93-12Z"/><path fill="#2C0F03" d="M703 888c-26.42-.51-52.87-3-80-3 12.69 1.23 27.86 1.48 41 2s26.65 2.68 39 1Z"/><path fill="#C0A989" d="M698 890c.04 0 0 1 0 1 4.03 0 20.61-2.47 9-3 .4 2.11 3.53.03 4 2z"/><path fill="#645042" d="M329 890c15.34-1.48 31.58 0 47 0-14.69-1.42-32.24-1.43-47 0Z"/><path fill="#A89783" d="M210 891c2.45 1.52 8.07-.81 10-1-3.18 0-7.57-.74-10 1Z"/><path fill="#715E4E" d="M304 891h16c-.04 0 0-1 0-1-5.4 0-11.29.54-16 1Z"/><path fill="#B79F83" d="M320 891c3.09 0 6.58-.77 9-1-2.94.28-6.05 0-9 0 0 0-.04 1 0 1Z"/><path fill="#997E65" d="M641 891h57s.04-1 0-1c-18.86 0-38.89-.75-57 1Z"/><path fill="#826E5A" d="M272 893c3.42 0 7.25-.73 10-1-3.42 0-7.25.73-10 1Z"/><path fill="#6D5240" d="M496 904c-3.08-2.39-5.99-5.43-9-8 1.18 1.18 7.98 9.81 9 8Z"/><path fill="#5A4636" d="M657 905c11.6.18 25.56-1 38-1-13.34-2.33-28.83-.33-43-1 .5 2.52 3.23 1.75 5 2Z"/><path fill="#513D30" d="M718 905c-4.64-.45-10.61-1-16-1 4.64.44 10.61 1 16 1Z"/><path fill="#533F32" d="M736 906c-2.69-.26-6.57-1-10-1 2.69.26 6.57 1 10 1Z"/><path fill="#4F3A2F" d="M265 909c1.9.23 3.95-.57 5-2-5.31.27-10.69-.36-16 0 2.54.07 8.41 2.07 11 2Z"/><path fill="#290C03" d="M477 921c-3.64 3.05-5.8 8.4-10 8-10.45-.99-18.07-8.23-29-9-10.92-.77-23.61-3-35-3h-45c-4.88 0-9.43.6-14 1-10.18.9-20 1.03-30 2 10.4.44 21.86-.3 33-1s23.93-.85 35-1 24.95.32 35 1 22.76 3.25 30.98 5.02c8.21 1.78 20.74 10.54 25.27 3.23S492.69 917.53 492 913c-.64 2.39-12.42 6.16-15 8Z"/><path fill="#2D0F04" d="M722 924c-24.69-1.96-49.15-4.03-74-6-4.6-.36-9.11-1-14-1h-37c-3 0-6-.06-9 0-3.31.07-5.92.59-9 1-17.39.18-33.27 6.42-49 12-3.93-6.27-14.45-17.31-23-16 .24 5.35 15.6 3.43 18.75 12.25 3.16 8.82 12.77 2.37 20.03-.47 7.25-2.84 17.44-4.77 26.22-5.78 8.77-1.01 20.33-2.43 30-2s22.19-.96 31.99.01 20.12 1.29 29.99 2.01c9.87.73 19.26 1.79 29.02 2.98s19.75 1.54 29 1Z"/><path fill="#FBF8E3" d="M344 918c4.57-.4 9.12-1 14-1 2.42-.23 5.91-1 9-1 11.83 0 24.22-1.06 36 0 .95-.22 2.74.39 3-1-22.15-.28-44.15.11-66 1 .52.72 3.36 1.94 4 2Z"/><path fill="#F9F3DE" d="M579 918c3.08-.41 5.69-.93 9-1 2.48-.3 5.86-1 9-1h27c3.42 0 7.31.74 10 1 4.89 0 9.4.64 14 1 .15-1.83 2.76-.33 3-2-24.49-.86-49.57-1.9-74 0 .11.54 1.69 1.94 2 2Z"/><path fill="#D8B991" d="M358 917h9c-.04 0 0-1 0-1-3.09 0-6.58.77-9 1Z"/><path fill="#8A5F34" d="M367 917h36s-.08-.99 0-1c-11.78-1.06-24.17 0-36 0 0 0-.04 1 0 1Z"/><path fill="#D0B084" d="M588 917c3-.06 6 0 9 0-.04 0 0-1 0-1-3.14 0-6.52.7-9 1Z"/><path fill="#865B2F" d="M597 917h27c-.04 0 0-1 0-1h-27s-.04 1 0 1Z"/><path fill="#D5B88C" d="M624 917h10c-2.69-.26-6.58-1-10-1 0 0-.04 1 0 1Z"/><path fill="#9E876E" d="M467 929c4.2.4 6.36-4.95 10-8-2.94 2.1-6.3 7.66-10 8Z"/><path fill="#674425" d="M222 928c3.09 0 6.58-.77 9-1-3.09 0-6.58.77-9 1Z"/><path fill="#250F08" d="M169 958c-2.58-1.61-10.89-4.05-15-8 4.61 5.62 8.47 6.14 15 8Z"/><path fill="#30180F" d="M447 953c3.89 0 7.81-.21 11 1 13.81 5.23 25 13.22 41 12s27.52-2.61 41-11c-1.58-2.54-8.56 4.61-14.98 6.02-6.41 1.41-15.6 4.03-23.02 3.98s-16.81-1.33-23.93-3.07c-7.11-1.75-11.91-5.39-18.33-8.67s-18.16-.99-24.74-.26z"/><path fill="#1E0500" d="M542 953c6.02-.54 12.76.49 18 1h47c3.29 0 6.73-.3 10 0 1.69-.63-10.81-1.53-16-1s-14.3-.59-20 0-14.43-2.41-20-1-15.17-2.96-19 1Z"/><path fill="#190300" d="M390 954h42c-17.53-1.67-38.4-1.66-56 0z"/><path fill="#6E5139" d="M447 954c3.37 0 7.73-.75 11 0-3.19-1.21-7.11-1-11-1 0 0-.04 1 0 1Z"/><path fill="#6B442E" d="M542 954c5.44-1.16 12.42 0 18 0-5.24-.51-11.98-1.54-18-1 0 0 .2.6 0 1Z"/><path fill="#1B0401" d="M172 959c8.2.7 16.77 0 25 0 2.42-.23 5.91-1 9-1h23c3.41-.33 7.92-1 12-1h33c4.39-.42 9.93-1 15-1h48c5.7-.55 12.62-1 19-1h19c-33.24-3.22-68.62.86-102.33.67S204.78 957.32 172 959Z"/><path fill="#8D7054" d="M390 955c4.74 0 9.94-.61 14-1h-14s-.04 1 0 1Z"/><path fill="#8B6F52" d="M607 955c-.04 0 0-1 0-1h-13c3.66.35 8.59 1 13 1Z"/><path fill="#68452B" d="M607 955h10s-.16-.94 0-1c-3.27-.3-6.71 0-10 0 0 0-.04 1 0 1Z"/><path fill="#160200" d="M628 955h35c2.96 0 6.05-.27 9 0-4.07-4.21-16 .38-22-1s-16.43.46-22 1Z"/><path fill="#85694A" d="M337 956c6.38 0 13.3-.45 19-1-6.38 0-13.3.45-19 1Z"/><path fill="#CFBCA0" d="M651 956c-.04 0 0-1 0-1h-10c2.68.26 6.58 1 10 1Z"/><path fill="#9C8465" d="M651 956h12c-.04 0 0-1 0-1h-12s-.04 1 0 1Z"/><path fill="#7C6041" d="M663 956h9s.25-.74 0-1c-2.95-.27-6.04 0-9 0 0 0-.04 1 0 1Z"/><path fill="#542F18" d="M274 957h15c-.04 0 0-1 0-1-5.07 0-10.61.58-15 1Z"/><path fill="#9F8568" d="M289 957c4.74 0 9.94-.61 14-1h-14s-.04 1 0 1Z"/><path fill="#836447" d="M722 957c-4.97-.48-11.28-1-17-1 4.97.48 11.28 1 17 1Z"/><path fill="#4C2C17" d="M229 958h12c-.04 0 0-1 0-1-4.08 0-8.59.67-12 1Z"/><path fill="#A68F73" d="M241 958c4.74 0 9.94-.61 14-1h-14s-.04 1 0 1Z"/><path fill="#B29A7F" d="M760 958c-.04 0 0-1 0-1h-10c2.68.26 6.58 1 10 1Z"/><path fill="#7D5B3B" d="M760 958h13c-3.66-.35-8.59-1-13-1 0 0-.04 1 0 1Z"/><path fill="#907258" d="M197 959h9c-.04 0 0-1 0-1-3.09 0-6.58.77-9 1Z"/><path fill="#C5AE91" d="M206 959c3.09 0 6.58-.77 9-1h-9s-.04 1 0 1Z"/><path fill="#6C472F" d="M831 958c-5.94.4-12.05 0-18 0 5.64.55 12.23 1.03 18 0Z"/></g></svg>